<?xml version="1.0" encoding="UTF-8"?>
<svg version="1.1" xmlns="http://www.w3.org/2000/svg" width="667" height="307">
<path d="M0 0 C1.54063048 1.33160021 3.06216349 2.68565879 4.5625 4.0625 C5.71298828 5.07570313 5.71298828 5.07570313 6.88671875 6.109375 C19.84713221 18.16762046 27.50927739 35.61010786 29.5625 53.0625 C29.5625 57.3525 29.5625 61.6425 29.5625 66.0625 C10.4225 66.0625 -8.7175 66.0625 -28.4375 66.0625 C-29.4275 61.7725 -30.4175 57.4825 -31.4375 53.0625 C-33.23268486 49.83245941 -33.23268486 49.83245941 -35.25390625 46.74609375 C-36.4375 45.0625 -36.4375 45.0625 -37.33984375 42.97265625 C-38.72762457 40.5576213 -39.89398625 40.12573458 -42.4375 39.0625 C-43.18386719 38.6603125 -43.93023438 38.258125 -44.69921875 37.84375 C-57.2119143 31.23479003 -69.93636992 30.21071092 -83.64453125 34.0859375 C-91.67454585 36.89363491 -97.55521096 40.59183956 -101.625 48.31640625 C-105.16552852 56.1719539 -105.73065138 63.07863394 -102.875 71.25 C-100.24869922 77.05886667 -96.90644621 81.43286255 -91.04223633 84.18774414 C-84.42606491 86.61763909 -78.18541221 87.91250446 -71.1875 88.625 C-69.07676841 88.86671201 -66.96609268 89.10891221 -64.85546875 89.3515625 C-63.79118652 89.46918945 -62.7269043 89.58681641 -61.63037109 89.70800781 C-27.85688405 93.45774808 6.52285819 99.52073145 29.40625 127.30078125 C42.33186894 144.61997681 44.55612962 164.62678528 42.29003906 185.58203125 C39.33844778 205.2147121 28.22797155 221.29299027 12.7265625 233.25 C1.76529726 241.26119632 -9.85585584 246.31918828 -22.9375 249.875 C-23.64729004 250.0699707 -24.35708008 250.26494141 -25.08837891 250.46582031 C-38.35249315 253.81507561 -51.94586863 254.4729463 -65.5625 254.4375 C-66.32075073 254.43728851 -67.07900146 254.43707703 -67.86022949 254.43685913 C-80.71593015 254.4012744 -92.96134965 253.3610751 -105.4375 250.0625 C-106.12602051 249.88589844 -106.81454102 249.70929688 -107.52392578 249.52734375 C-122.11702202 245.64064981 -136.27858081 238.25732139 -147.4375 228.0625 C-148.118125 227.47339844 -148.79875 226.88429688 -149.5 226.27734375 C-163.81048884 213.11281203 -170.24641833 194.94499248 -172.4375 176.0625 C-172.4375 173.0925 -172.4375 170.1225 -172.4375 167.0625 C-153.2975 167.0625 -134.1575 167.0625 -114.4375 167.0625 C-113.4475 171.0225 -112.4575 174.9825 -111.4375 179.0625 C-106.81694574 189.22771937 -100.42637287 194.75510506 -90.1640625 199.06640625 C-73.71564302 205.07549933 -53.22520462 205.1405985 -36.92578125 198.66796875 C-29.93390107 195.27092979 -24.16633487 191.93122545 -20.1875 185.0625 C-19.68734375 184.216875 -19.1871875 183.37125 -18.671875 182.5 C-16.02682859 177.27687038 -15.61683663 171.7137565 -16.8984375 166.01171875 C-18.93730154 159.83516003 -22.19486884 155.05671816 -27.78125 151.62109375 C-42.18248081 144.52636975 -58.99032603 143.94294032 -74.70336914 142.33569336 C-101.23387338 139.59449178 -124.87454802 133.26679786 -144.4375 114.0625 C-145.1490625 113.37542969 -145.860625 112.68835938 -146.59375 111.98046875 C-159.2725527 98.83840211 -164.40797937 80.04434183 -164.48095703 62.13476562 C-164.01416796 39.87574528 -157.03845291 19.99463839 -140.89941406 4.41455078 C-106.37180128 -27.51830152 -37.08562153 -28.89563979 0 0 Z " fill="#FD4236" transform="translate(598.4375,32.9375)"/>
<path d="M0 0 C1.02697723 -0.00297112 2.05395445 -0.00594224 3.1120522 -0.0090034 C6.5580471 -0.01768457 10.00400724 -0.01919816 13.45001221 -0.02069092 C15.91887486 -0.02531948 18.3877368 -0.03034419 20.8565979 -0.03573608 C27.56743722 -0.04885791 34.27826294 -0.05534139 40.9891119 -0.05974674 C45.18147597 -0.06251194 49.37383774 -0.06674979 53.56620026 -0.07125092 C65.17976613 -0.08344112 76.79333018 -0.09374107 88.40690231 -0.09712601 C89.52124987 -0.09745536 89.52124987 -0.09745536 90.6581095 -0.09779136 C91.40275676 -0.09800964 92.14740402 -0.09822791 92.91461635 -0.09845281 C94.42348528 -0.09889627 95.93235421 -0.09934283 97.44122314 -0.09979248 C98.56389308 -0.10012463 98.56389308 -0.10012463 99.70924321 -0.10046348 C111.83407666 -0.10441068 123.95884998 -0.12186342 136.08366022 -0.145152 C148.53999105 -0.16888372 160.99629174 -0.18132868 173.45264554 -0.18249393 C180.44322311 -0.18340964 187.43372232 -0.18913582 194.42427826 -0.20731354 C201.00046101 -0.22435385 207.57652146 -0.22595355 214.15272903 -0.21717453 C216.5645678 -0.21640374 218.97641453 -0.22075234 221.38823318 -0.23063278 C224.68461754 -0.24334363 227.9804746 -0.2374797 231.27685547 -0.22705078 C232.70319467 -0.23913539 232.70319467 -0.23913539 234.1583488 -0.25146413 C240.85472336 -0.20202932 247.57643114 0.56339446 253.01348877 4.78887939 C253.44790283 5.35864502 253.88231689 5.92841064 254.32989502 6.51544189 C254.78235596 7.08005127 255.23481689 7.64466064 255.70098877 8.22637939 C259.27877108 13.97429196 259.15715628 19.09531848 259.08770752 25.69122314 C259.08346268 27.21213814 259.08346268 27.21213814 259.07913208 28.76377869 C259.06796127 31.99362116 259.04286213 35.22318361 259.01739502 38.45294189 C259.00736122 40.64629726 258.99823607 42.83965698 258.99005127 45.03302002 C258.96803208 50.40225575 258.93458525 55.77132881 258.89239502 61.14044189 C256.25239502 61.14044189 253.61239502 61.14044189 250.89239502 61.14044189 C250.89239502 47.94044189 250.89239502 34.74044189 250.89239502 21.14044189 C161.79239502 21.14044189 72.69239502 21.14044189 -19.10760498 21.14044189 C-19.10760498 65.69044189 -19.10760498 110.24044189 -19.10760498 156.14044189 C56.46239502 156.14044189 132.03239502 156.14044189 209.89239502 156.14044189 C209.89239502 164.06044189 209.89239502 171.98044189 209.89239502 180.14044189 C190.75239502 180.14044189 171.61239502 180.14044189 151.89239502 180.14044189 C152.22239502 187.07044189 152.55239502 194.00044189 152.89239502 201.14044189 C150.25239502 201.14044189 147.61239502 201.14044189 144.89239502 201.14044189 C141.74773464 194.85112114 143.26197162 187.16239729 142.89239502 180.14044189 C125.07239502 180.14044189 107.25239502 180.14044189 88.89239502 180.14044189 C88.56239502 186.08044189 88.23239502 192.02044189 87.89239502 198.14044189 C87.56239502 199.13044189 87.23239502 200.12044189 86.89239502 201.14044189 C84.25239502 201.14044189 81.61239502 201.14044189 78.89239502 201.14044189 C78.86509008 198.9530131 78.84586247 196.76548282 78.82989502 194.57794189 C78.81829346 193.35977783 78.80669189 192.14161377 78.79473877 190.88653564 C78.89021136 187.22420718 79.34522404 183.75858632 79.89239502 180.14044189 C78.74504883 180.14932434 77.59770264 180.15820679 76.41558838 180.1673584 C65.58705333 180.24855102 54.75858029 180.30845863 43.92980957 180.34769058 C38.36300947 180.36853842 32.79645571 180.39680517 27.22979736 180.44219971 C21.85462024 180.48575696 16.47967963 180.50960009 11.1043396 180.51995087 C9.05667398 180.52732447 7.00902086 180.54172341 4.9614563 180.56336212 C2.08659192 180.59252718 -0.78730325 180.5963924 -3.66229248 180.59454346 C-4.50314896 180.60892456 -5.34400543 180.62330566 -6.21034241 180.63812256 C-12.56040228 180.59411978 -17.7888676 179.05160676 -22.6366272 174.79919815 C-29.32526357 167.48800905 -28.40592858 158.37463461 -28.39813232 149.10211182 C-28.40412343 147.67889557 -28.41093032 146.25568255 -28.41848755 144.83247375 C-28.43609567 140.98108247 -28.44084073 137.12978015 -28.44211912 133.2783525 C-28.44354424 130.86793016 -28.44782067 128.45753018 -28.45311356 126.04711342 C-28.47159679 117.62597858 -28.47978633 109.2049069 -28.47821045 100.78375244 C-28.47700956 92.95329691 -28.49810577 85.12311723 -28.52969778 77.29273146 C-28.55591106 70.5536232 -28.56657563 63.81460476 -28.56529963 57.07544595 C-28.56479147 53.05766194 -28.5703932 49.04012326 -28.59165573 45.02239037 C-28.61112367 41.24079895 -28.6111049 37.45968476 -28.59662247 33.67807579 C-28.59355894 31.64277184 -28.61015075 29.6074674 -28.62750244 27.57223511 C-28.57095302 19.26676794 -27.96728416 11.12440413 -21.92401123 4.88653564 C-21.18022217 4.45469971 -20.43643311 4.02286377 -19.67010498 3.57794189 C-18.92889404 3.12290283 -18.18768311 2.66786377 -17.42401123 2.19903564 C-11.83251067 -0.35627068 -6.02567564 -0.00543973 0 0 Z " fill="#FC4236" transform="translate(67.10760498046875,58.85955810546875)"/>
<path d="M0 0 C0.96898727 -0.0066568 1.93797455 -0.0133136 2.93632507 -0.02017212 C4.98121247 -0.03027002 7.02613262 -0.03499003 9.07104492 -0.03466797 C12.17878307 -0.03903379 15.28509154 -0.07536405 18.39257812 -0.11328125 C20.38671394 -0.11915169 22.38085644 -0.12311956 24.375 -0.125 C25.29404617 -0.13937103 26.21309235 -0.15374207 27.1599884 -0.16854858 C34.27123146 -0.11887447 40.66723652 1.35361786 46.0078125 6.30078125 C46.65943359 7.27724609 46.65943359 7.27724609 47.32421875 8.2734375 C47.77667969 8.92183594 48.22914063 9.57023438 48.6953125 10.23828125 C50.97356544 14.24950037 52.13524047 17.65531322 52.16087341 22.28045654 C52.17084854 23.2503653 52.18082367 24.22027405 52.19110107 25.21957397 C52.19176575 26.27214386 52.19243042 27.32471375 52.19311523 28.40917969 C52.20143875 29.52686737 52.20976227 30.64455505 52.21833801 31.79611206 C52.24243639 35.49171431 52.25121046 39.18714 52.2578125 42.8828125 C52.26677955 45.45485487 52.27590141 48.0268967 52.28517151 50.59893799 C52.30166407 55.99240742 52.30939493 61.38580591 52.31225586 66.77929688 C52.31588702 72.99660496 52.34575607 79.21341816 52.38766044 85.43057513 C52.42665645 91.42830127 52.4378508 97.42575494 52.43898201 103.42362213 C52.44318172 105.96726411 52.45560586 108.51090661 52.47649956 111.05446625 C52.50344272 114.61845089 52.49857801 118.1810817 52.48608398 121.74511719 C52.50091827 122.78959015 52.51575256 123.83406311 52.53103638 124.91018677 C52.46208753 131.83913728 51.00963644 136.71181625 46.88671875 142.3359375 C44.5703125 144.4921875 44.5703125 144.4921875 42.32421875 145.8359375 C41.58042969 146.3 40.83664062 146.7640625 40.0703125 147.2421875 C36.60131533 148.97978894 33.46814388 149.46104834 29.61230469 149.49707031 C28.77753601 149.50667786 27.94276733 149.5162854 27.08270264 149.52618408 C26.1878717 149.53043396 25.29304077 149.53468384 24.37109375 149.5390625 C22.97639862 149.54761261 22.97639862 149.54761261 21.55352783 149.55633545 C19.58664076 149.56577321 17.61973796 149.57231457 15.65283203 149.57617188 C12.66149886 149.58585727 9.67085894 149.61688402 6.6796875 149.6484375 C4.76432698 149.65497019 2.84896156 149.66021962 0.93359375 149.6640625 C0.04685974 149.6764093 -0.83987427 149.6887561 -1.753479 149.70147705 C-8.95443576 149.67597391 -14.24667488 148.21025705 -20.36328125 144.2109375 C-26.9093011 137.36737129 -27.70207652 129.93801623 -27.63085938 120.79272461 C-27.63786865 119.67284653 -27.64487793 118.55296844 -27.65209961 117.39915466 C-27.66961569 113.72027334 -27.65807955 110.04216955 -27.64453125 106.36328125 C-27.64722779 103.79455926 -27.65111155 101.22583826 -27.65612793 98.65711975 C-27.66201421 93.28326717 -27.65387228 87.90970367 -27.63476562 82.53588867 C-27.61298959 76.34009825 -27.62006166 70.1448343 -27.64207125 63.94905657 C-27.66246983 57.96517149 -27.66023584 51.98154215 -27.64854431 45.99762154 C-27.64588135 43.46155282 -27.64913155 40.9254706 -27.65846252 38.38941765 C-27.66865085 34.84250444 -27.6530937 31.29659458 -27.63085938 27.74975586 C-27.6389563 26.7079718 -27.64705322 25.66618774 -27.65539551 24.59283447 C-27.57062833 17.27269686 -26.25025796 12.04587799 -21.40234375 6.3125 C-20.85320312 5.86648437 -20.3040625 5.42046875 -19.73828125 4.9609375 C-19.19429688 4.49945313 -18.6503125 4.03796875 -18.08984375 3.5625 C-12.34771047 -0.0008001 -6.53522263 0.01572241 0 0 Z M5.88671875 12.3359375 C5.88671875 13.3259375 5.88671875 14.3159375 5.88671875 15.3359375 C10.17671875 15.3359375 14.46671875 15.3359375 18.88671875 15.3359375 C18.88671875 14.3459375 18.88671875 13.3559375 18.88671875 12.3359375 C14.59671875 12.3359375 10.30671875 12.3359375 5.88671875 12.3359375 Z M-21.11328125 25.3359375 C-21.11328125 30.9459375 -21.11328125 36.5559375 -21.11328125 42.3359375 C-20.78328125 41.6759375 -20.45328125 41.0159375 -20.11328125 40.3359375 C-10.21328125 40.3359375 -0.31328125 40.3359375 9.88671875 40.3359375 C8.56671875 39.3459375 7.24671875 38.3559375 5.88671875 37.3359375 C4.94921875 33.9609375 4.94921875 33.9609375 4.88671875 30.3359375 C5.87671875 28.6859375 6.86671875 27.0359375 7.88671875 25.3359375 C-1.68328125 25.3359375 -11.25328125 25.3359375 -21.11328125 25.3359375 Z M15.88671875 25.3359375 C16.54671875 26.3259375 17.20671875 27.3159375 17.88671875 28.3359375 C18.51946211 34.03062777 18.51946211 34.03062777 17.88671875 36.3359375 C16.23671875 37.6559375 14.58671875 38.9759375 12.88671875 40.3359375 C23.44671875 40.3359375 34.00671875 40.3359375 44.88671875 40.3359375 C44.88671875 57.8259375 44.88671875 75.3159375 44.88671875 93.3359375 C23.10671875 93.3359375 1.32671875 93.3359375 -21.11328125 93.3359375 C-20.78328125 93.9959375 -20.45328125 94.6559375 -20.11328125 95.3359375 C1.33671875 95.0059375 22.78671875 94.6759375 44.88671875 94.3359375 C44.88671875 95.9859375 44.88671875 97.6359375 44.88671875 99.3359375 C23.10671875 99.3359375 1.32671875 99.3359375 -21.11328125 99.3359375 C-21.11328125 99.9959375 -21.11328125 100.6559375 -21.11328125 101.3359375 C0.66671875 101.3359375 22.44671875 101.3359375 44.88671875 101.3359375 C44.88671875 104.9659375 44.88671875 108.5959375 44.88671875 112.3359375 C35.97671875 112.3359375 27.06671875 112.3359375 17.88671875 112.3359375 C18.21671875 113.9859375 18.54671875 115.6359375 18.88671875 117.3359375 C5.68671875 117.3359375 -7.51328125 117.3359375 -21.11328125 117.3359375 C-21.11328125 118.3259375 -21.11328125 119.3159375 -21.11328125 120.3359375 C0.99671875 120.3359375 23.10671875 120.3359375 45.88671875 120.3359375 C45.88671875 88.9859375 45.88671875 57.6359375 45.88671875 25.3359375 C35.98671875 25.3359375 26.08671875 25.3359375 15.88671875 25.3359375 Z M9.88671875 30.3359375 C10.21671875 31.6559375 10.54671875 32.9759375 10.88671875 34.3359375 C11.87671875 34.0059375 12.86671875 33.6759375 13.88671875 33.3359375 C13.55671875 32.3459375 13.22671875 31.3559375 12.88671875 30.3359375 C11.89671875 30.3359375 10.90671875 30.3359375 9.88671875 30.3359375 Z M-16.11328125 45.3359375 C-16.11328125 50.6159375 -16.11328125 55.8959375 -16.11328125 61.3359375 C2.36671875 61.3359375 20.84671875 61.3359375 39.88671875 61.3359375 C39.88671875 56.0559375 39.88671875 50.7759375 39.88671875 45.3359375 C21.40671875 45.3359375 2.92671875 45.3359375 -16.11328125 45.3359375 Z M-15.11328125 71.3359375 C-15.11328125 76.9459375 -15.11328125 82.5559375 -15.11328125 88.3359375 C-7.85328125 88.3359375 -0.59328125 88.3359375 6.88671875 88.3359375 C6.88671875 82.7259375 6.88671875 77.1159375 6.88671875 71.3359375 C-0.37328125 71.3359375 -7.63328125 71.3359375 -15.11328125 71.3359375 Z M16.88671875 71.3359375 C16.88671875 76.9459375 16.88671875 82.5559375 16.88671875 88.3359375 C24.47671875 88.3359375 32.06671875 88.3359375 39.88671875 88.3359375 C39.88671875 82.7259375 39.88671875 77.1159375 39.88671875 71.3359375 C32.29671875 71.3359375 24.70671875 71.3359375 16.88671875 71.3359375 Z M-21.11328125 105.3359375 C-20.11328125 107.3359375 -20.11328125 107.3359375 -20.11328125 107.3359375 Z M-21.11328125 111.3359375 C-20.11328125 113.3359375 -20.11328125 113.3359375 -20.11328125 113.3359375 Z M7.88671875 130.3359375 C7.55328324 132.87801721 7.55328324 132.87801721 7.88671875 135.3359375 C9.0570818 136.72881556 9.0570818 136.72881556 12.32421875 136.5234375 C15.93704596 136.73158678 15.93704596 136.73158678 17.88671875 134.3359375 C17.51990217 131.40140489 17.02234629 130.47156504 14.88671875 128.3359375 C10.84049373 127.96613737 10.84049373 127.96613737 7.88671875 130.3359375 Z " fill="#FC4237" transform="translate(306.11328125,121.6640625)"/>
<path d="M0 0 C1.02456299 -0.00021904 1.02456299 -0.00021904 2.06982422 -0.0004425 C4.33157507 0.00025517 6.59324397 0.00804074 8.85498047 0.01586914 C10.42153885 0.01773384 11.98809781 0.0191575 13.55465698 0.02015686 C17.68106695 0.02397796 21.80744181 0.03380479 25.93383789 0.04486084 C30.14322434 0.05508369 34.35261644 0.05965636 38.56201172 0.06469727 C46.82374659 0.07542741 55.08545292 0.09249897 63.34716797 0.11352539 C63.37031147 12.44817107 63.38809334 24.78281161 63.39898014 37.11747456 C63.40420456 42.8446002 63.41129425 48.57171102 63.42260742 54.29882812 C63.43345191 59.82308791 63.43944814 65.34733341 63.44204521 70.87160301 C63.44389663 72.98197848 63.44751185 75.09235314 63.45289803 77.20272255 C63.46012913 80.15258108 63.46115803 83.10238016 63.46069336 86.05224609 C63.46428864 86.92978043 63.46788391 87.80731476 63.47158813 88.71144104 C63.46579818 92.09557173 63.4248722 94.88041271 62.34716797 98.11352539 C40.23716797 98.11352539 18.12716797 98.11352539 -4.65283203 98.11352539 C-4.65283203 97.78352539 -4.65283203 97.45352539 -4.65283203 97.11352539 C17.12716797 97.11352539 38.90716797 97.11352539 61.34716797 97.11352539 C61.34716797 65.76352539 61.34716797 34.41352539 61.34716797 2.11352539 C51.77716797 2.44352539 42.20716797 2.77352539 32.34716797 3.11352539 C33.00716797 3.77352539 33.66716797 4.43352539 34.34716797 5.11352539 C34.79087026 10.70417425 34.79087026 10.70417425 34.34716797 13.11352539 C33.35716797 14.10352539 32.36716797 15.09352539 31.34716797 16.11352539 C40.91716797 16.44352539 50.48716797 16.77352539 60.34716797 17.11352539 C60.34716797 34.60352539 60.34716797 52.09352539 60.34716797 70.11352539 C44.24570929 70.27396063 44.24570929 70.27396063 37.38818359 70.30883789 C32.70676568 70.3327602 28.02566036 70.36107521 23.34448242 70.4152832 C19.57083014 70.45870915 15.79751298 70.48265548 12.02363014 70.49303436 C10.58306412 70.50043172 9.14251667 70.51487712 7.70209312 70.53644562 C5.68642401 70.56543036 3.67041846 70.56715886 1.65454102 70.56762695 C0.50648483 70.5765094 -0.64157135 70.58539185 -1.82441711 70.59454346 C-4.65283203 70.11352539 -4.65283203 70.11352539 -6.52377319 68.36398315 C-7.76209302 65.89574468 -8.02740074 64.39814055 -8.02514648 61.65209961 C-8.03137527 60.77794403 -8.03760406 59.90378845 -8.04402161 59.00314331 C-8.03481186 58.06761627 -8.02560211 57.13208923 -8.01611328 56.16821289 C-8.01661179 55.20199005 -8.01711029 54.23576721 -8.0176239 53.24026489 C-8.01528608 51.20108988 -8.0055748 49.16191184 -7.98901367 47.12280273 C-7.96536696 43.99314757 -7.96846168 40.86434125 -7.97509766 37.73461914 C-7.96952266 35.75414529 -7.96241391 33.77367503 -7.95361328 31.79321289 C-7.95452469 30.85363739 -7.9554361 29.91406189 -7.95637512 28.9460144 C-7.94684311 28.07816315 -7.9373111 27.21031189 -7.92749023 26.31616211 C-7.92288284 25.55101288 -7.91827545 24.78586365 -7.91352844 23.99752808 C-7.65283203 22.11352539 -7.65283203 22.11352539 -5.65283203 20.11352539 C-4.33283203 20.11352539 -3.01283203 20.11352539 -1.65283203 20.11352539 C-2.64283203 19.78352539 -3.63283203 19.45352539 -4.65283203 19.11352539 C-4.65283203 18.45352539 -4.65283203 17.79352539 -4.65283203 17.11352539 C4.58716797 16.78352539 13.82716797 16.45352539 23.34716797 16.11352539 C22.35716797 15.45352539 21.36716797 14.79352539 20.34716797 14.11352539 C19.47216797 10.73852539 19.47216797 10.73852539 19.34716797 7.11352539 C20.33716797 5.79352539 21.32716797 4.47352539 22.34716797 3.11352539 C8.48716797 2.61852539 8.48716797 2.61852539 -5.65283203 2.11352539 C-5.65283203 7.72352539 -5.65283203 13.33352539 -5.65283203 19.11352539 C-6.31283203 18.78352539 -6.97283203 18.45352539 -7.65283203 18.11352539 C-7.98283203 12.50352539 -8.31283203 6.89352539 -8.65283203 1.11352539 C-5.75368292 -0.33604917 -3.23854903 -0.00580385 0 0 Z M25.34716797 7.11352539 C25.67716797 8.43352539 26.00716797 9.75352539 26.34716797 11.11352539 C27.33716797 10.78352539 28.32716797 10.45352539 29.34716797 10.11352539 C29.01716797 9.12352539 28.68716797 8.13352539 28.34716797 7.11352539 C27.35716797 7.11352539 26.36716797 7.11352539 25.34716797 7.11352539 Z M-0.65283203 22.11352539 C-0.65283203 27.39352539 -0.65283203 32.67352539 -0.65283203 38.11352539 C17.82716797 38.11352539 36.30716797 38.11352539 55.34716797 38.11352539 C55.34716797 32.83352539 55.34716797 27.55352539 55.34716797 22.11352539 C36.86716797 22.11352539 18.38716797 22.11352539 -0.65283203 22.11352539 Z M0.34716797 48.11352539 C0.34716797 53.72352539 0.34716797 59.33352539 0.34716797 65.11352539 C7.60716797 65.11352539 14.86716797 65.11352539 22.34716797 65.11352539 C22.34716797 59.50352539 22.34716797 53.89352539 22.34716797 48.11352539 C15.08716797 48.11352539 7.82716797 48.11352539 0.34716797 48.11352539 Z M32.34716797 48.11352539 C32.34716797 53.72352539 32.34716797 59.33352539 32.34716797 65.11352539 C39.93716797 65.11352539 47.52716797 65.11352539 55.34716797 65.11352539 C55.34716797 59.50352539 55.34716797 53.89352539 55.34716797 48.11352539 C47.75716797 48.11352539 40.16716797 48.11352539 32.34716797 48.11352539 Z " fill="#F44D43" transform="translate(290.65283203125,144.886474609375)"/>
<path d="M0 0 C57.75 0 115.5 0 175 0 C175 17.82 175 35.64 175 54 C117.25 54 59.5 54 0 54 C0 36.18 0 18.36 0 0 Z M5 5 C5 19.52 5 34.04 5 49 C59.45 49 113.9 49 170 49 C170 34.48 170 19.96 170 5 C115.55 5 61.1 5 5 5 Z " fill="#F74C42" transform="translate(95,105)"/>
<path d="M0 0 C0.66 0 1.32 0 2 0 C2.33 0.66 2.66 1.32 3 2 C24.45 2 45.9 2 68 2 C68 3.65 68 5.3 68 7 C46.22 7 24.44 7 2 7 C2 7.66 2 8.32 2 9 C23.78 9 45.56 9 68 9 C68 12.63 68 16.26 68 20 C59.42 20.33 50.84 20.66 42 21 C42 22.32 42 23.64 42 25 C28.8 25 15.6 25 2 25 C1.67 25.99 1.34 26.98 1 28 C0.27507668 18.64072209 -0.14256667 9.39355936 0 0 Z M2 13 C3 15 3 15 3 15 Z M2 19 C3 21 3 21 3 21 Z " fill="#E45750" transform="translate(283,214)"/>
<path d="M0 0 C32.34 0 64.68 0 98 0 C98 3.63 98 7.26 98 11 C65.66 11 33.32 11 0 11 C0 7.37 0 3.74 0 0 Z " fill="#FC4337" transform="translate(134,263)"/>
<path d="M0 0 C16.17 0 32.34 0 49 0 C49 12.54 49 25.08 49 38 C32.83 38 16.66 38 0 38 C0 25.46 0 12.92 0 0 Z M5 6 C5 14.91 5 23.82 5 33 C17.54 33 30.08 33 43 33 C43 24.09 43 15.18 43 6 C30.46 6 17.92 6 5 6 Z " fill="#DC524A" transform="translate(95,163)"/>
<path d="M0 0 C0.33 0 0.66 0 1 0 C1 44.55 1 89.1 1 135 C76.57 135 152.14 135 230 135 C230 142.92 230 150.84 230 159 C210.86 159 191.72 159 172 159 C172.33 165.93 172.66 172.86 173 180 C170.36 180 167.72 180 165 180 C163.67770811 177.35541621 163.90322806 175.32238699 163.9375 172.375 C163.94652344 171.37210938 163.95554688 170.36921875 163.96484375 169.3359375 C163.98224609 168.17964844 163.98224609 168.17964844 164 167 C164.66 167 165.32 167 166 167 C166 170.96 166 174.92 166 179 C167.65 179 169.3 179 171 179 C170.67 177.35 170.34 175.7 170 174 C170 168.39 170 162.78 170 157 C189.14 157 208.28 157 228 157 C228 150.4 228 143.8 228 137 C152.76 137 77.52 137 0 137 C0 91.79 0 46.58 0 0 Z " fill="#DB5B52" transform="translate(47,80)"/>
<path d="M0 0 C0.33 0.99 0.66 1.98 1 3 C1.66 3 2.32 3 3 3 C3.04898437 3.68707031 3.09796875 4.37414062 3.1484375 5.08203125 C3.22320312 5.98308594 3.29796875 6.88414062 3.375 7.8125 C3.44460938 8.70582031 3.51421875 9.59914062 3.5859375 10.51953125 C3.86645036 13.24398499 3.86645036 13.24398499 6 16 C8.44690885 16.45256062 8.44690885 16.45256062 11.3359375 16.37231445 C13.007771 16.38165764 13.007771 16.38165764 14.71337891 16.39118958 C16.52588135 16.37737495 16.52588135 16.37737495 18.375 16.36328125 C20.22810791 16.36402901 20.22810791 16.36402901 22.11865234 16.36479187 C25.40601525 16.36184634 28.69294866 16.3447929 31.98022461 16.3225708 C33.9979612 16.31251017 36.01544712 16.31218735 38.03320312 16.31567383 C41.89725104 16.32206969 45.76097475 16.314184 49.625 16.30078125 C50.83333496 16.30169266 52.04166992 16.30260406 53.28662109 16.30354309 C54.40117676 16.29401108 55.51573242 16.28447906 56.6640625 16.2746582 C58.14060303 16.26774712 58.14060303 16.26774712 59.64697266 16.26069641 C62.18953399 16.2270935 62.18953399 16.2270935 64 14 C64.1875 16.875 64.1875 16.875 64 20 C63.01 20.66 62.02 21.32 61 22 C61.99 22.33 62.98 22.66 64 23 C64 24.65 64 26.3 64 28 C63.28432861 27.67402832 62.56865723 27.34805664 61.83129883 27.01220703 C58.8906153 25.96089428 56.80365719 25.76837828 53.69921875 25.8046875 C52.72275391 25.81113281 51.74628906 25.81757813 50.74023438 25.82421875 C49.22913086 25.84935547 49.22913086 25.84935547 47.6875 25.875 C46.14739258 25.88853516 46.14739258 25.88853516 44.57617188 25.90234375 C42.05054101 25.92583799 39.5253919 25.95868869 37 26 C36.91910458 28.77141717 36.85955938 31.54047819 36.8125 34.3125 C36.78736328 35.09818359 36.76222656 35.88386719 36.73632812 36.69335938 C36.72182617 37.8293457 36.72182617 37.8293457 36.70703125 38.98828125 C36.68346558 40.03302612 36.68346558 40.03302612 36.65942383 41.09887695 C36.89707313 43.46840995 36.89707313 43.46840995 40 46 C30.43 46 20.86 46 11 46 C11 45.67 11 45.34 11 45 C17.27 45 23.54 45 30 45 C29.67 44.01 29.34 43.02 29 42 C29.0617656 39.66413732 29.19541373 37.32976785 29.375 35 C29.46523438 33.7625 29.55546875 32.525 29.6484375 31.25 C30 28 30 28 31 25 C31 24.34 31 23.68 31 23 C30.01 23 29.02 23 28 23 C28 23.66 28 24.32 28 25 C20.08 25 12.16 25 4 25 C4.061875 27.7225 4.12375 30.445 4.1875 33.25 C4.19753052 34.52665527 4.19753052 34.52665527 4.20776367 35.82910156 C4.38004975 39.99753618 4.47925988 41.48005734 7.55078125 44.546875 C8.35902344 45.02640625 9.16726563 45.5059375 10 46 C3.84765625 46.09765625 3.84765625 46.09765625 2 46 C0.42638938 44.42638938 0.87023453 42.84855555 0.8671875 40.66796875 C0.86589844 39.78689453 0.86460937 38.90582031 0.86328125 37.99804688 C0.86714844 37.07056641 0.87101562 36.14308594 0.875 35.1875 C0.87113281 34.27162109 0.86726563 33.35574219 0.86328125 32.41210938 C0.86457031 31.52716797 0.86585938 30.64222656 0.8671875 29.73046875 C0.86831543 28.91989014 0.86944336 28.10931152 0.87060547 27.27416992 C1 25 1 25 1.56640625 22.84375 C2.21364757 20.89932769 2.21364757 20.89932769 1.0703125 18.76953125 C-0.35881583 15.07153129 -0.2155924 11.58645758 -0.125 7.6875 C-0.11597656 6.94693359 -0.10695313 6.20636719 -0.09765625 5.44335938 C-0.07424213 3.62876533 -0.03837615 1.81433929 0 0 Z " fill="#F8463B" transform="translate(285,167)"/>
<path d="M0 0 C57.75 0 115.5 0 175 0 C175 17.82 175 35.64 175 54 C117.25 54 59.5 54 0 54 C0 52.68 0 51.36 0 50 C0.66 50 1.32 50 2 50 C2 50.66 2 51.32 2 52 C58.76 52 115.52 52 174 52 C174 35.5 174 19 174 2 C116.58 2 59.16 2 0 2 C0 1.34 0 0.68 0 0 Z " fill="#DF5950" transform="translate(95,105)"/>
<path d="M0 0 C9.57 0 19.14 0 29 0 C29 17.49 29 34.98 29 53 C7.55 53 -13.9 53 -36 53 C-36 52.34 -36 51.68 -36 51 C-33.03 50.505 -33.03 50.505 -30 50 C-30.48895752 49.5877417 -30.97791504 49.1754834 -31.48168945 48.75073242 C-33.32221224 46.62846375 -33.35527774 45.75064629 -33.29296875 42.98828125 C-33.28547607 42.30548096 -33.2779834 41.62268066 -33.27026367 40.91918945 C-33.24295166 40.05898193 -33.21563965 39.19877441 -33.1875 38.3125 C-33.125625 35.569375 -33.06375 32.82625 -33 30 C-25.08 30 -17.16 30 -9 30 C-9 29.34 -9 28.68 -9 28 C-8.01 28 -7.02 28 -6 28 C-5.67 29.98 -5.34 31.96 -5 34 C-5.33 34 -5.66 34 -6 34 C-6.33 39.28 -6.66 44.56 -7 50 C-4.03 50 -1.06 50 2 50 C1.01 49.34 0.02 48.68 -1 48 C-1.24817926 45.06616664 -1.32643881 42.36367315 -1.25 39.4375 C-1.24484375 38.64408203 -1.2396875 37.85066406 -1.234375 37.03320312 C-1.15404491 31.15404491 -1.15404491 31.15404491 0 30 C1.63472882 29.91299658 3.27314055 29.89298937 4.91015625 29.90234375 C6.39418945 29.90717773 6.39418945 29.90717773 7.90820312 29.91210938 C8.94912109 29.92048828 9.99003906 29.92886719 11.0625 29.9375 C12.62967773 29.94426758 12.62967773 29.94426758 14.22851562 29.95117188 C16.8190666 29.96300087 19.40950559 29.97948311 22 30 C22 30.33 22 30.66 22 31 C15.07 31 8.14 31 1 31 C1 36.61 1 42.22 1 48 C8.59 48 16.18 48 24 48 C24 42.72 24 37.44 24 32 C24.99 32.33 25.98 32.66 27 33 C27 31.35 27 29.7 27 28 C25.68 27.67 24.36 27.34 23 27 C23.99 26.34 24.98 25.68 26 25 C26 23.68 26 22.36 26 21 C25.505 21.495 25.505 21.495 25 22 C23.2507128 22.09365006 21.49763746 22.11744438 19.74584961 22.11352539 C18.62476303 22.11344986 17.50367645 22.11337433 16.34861755 22.11329651 C14.51896202 22.10555458 14.51896202 22.10555458 12.65234375 22.09765625 C11.41078018 22.0962413 10.16921661 22.09482635 8.89002991 22.09336853 C5.58394509 22.08870591 2.27792854 22.07971497 -1.02813721 22.06866455 C-4.3996115 22.05844827 -7.77109283 22.05387045 -11.14257812 22.04882812 C-17.76173775 22.03777395 -24.38086493 22.02101736 -31 22 C-31 21.67 -31 21.34 -31 21 C-12.85 21 5.3 21 24 21 C24 15.72 24 10.44 24 5 C24.33 5 24.66 5 25 5 C25 9.29 25 13.58 25 18 C25.66 18 26.32 18 27 18 C27 12.72 27 7.44 27 2 C18.09 2 9.18 2 0 2 C0 1.34 0 0.68 0 0 Z M-31 31 C-31 36.61 -31 42.22 -31 48 C-23.74 48 -16.48 48 -9 48 C-9 42.39 -9 36.78 -9 31 C-16.26 31 -23.52 31 -31 31 Z " fill="#DB5B52" transform="translate(322,162)"/>
<path d="M0 0 C38.28 0 76.56 0 116 0 C116 1.65 116 3.3 116 5 C77.72 5 39.44 5 0 5 C0 3.35 0 1.7 0 0 Z " fill="#E6564E" transform="translate(153,184)"/>
<path d="M0 0 C38.28 0 76.56 0 116 0 C116 1.65 116 3.3 116 5 C77.72 5 39.44 5 0 5 C0 3.35 0 1.7 0 0 Z " fill="#DC5D55" transform="translate(153,166)"/>
<path d="M0 0 C38.28 0 76.56 0 116 0 C115.67 1.65 115.34 3.3 115 5 C77.05 5 39.1 5 0 5 C0 3.35 0 1.7 0 0 Z " fill="#EC4E44" transform="translate(153,175)"/>
<path d="M0 0 C2.28756013 2.28756013 2.93628788 3.88363522 3.12025452 7.10710144 C3.11803391 7.91762466 3.11581329 8.72814789 3.11352539 9.56323242 C3.11344986 10.48396042 3.11337433 11.40468842 3.11329651 12.35331726 C3.10813522 13.34402725 3.10297394 14.33473724 3.09765625 15.35546875 C3.09553383 16.88062859 3.09553383 16.88062859 3.09336853 18.43659973 C3.08776707 21.68692964 3.07521432 24.93719088 3.0625 28.1875 C3.05748519 30.38997296 3.05292225 32.59244701 3.04882812 34.79492188 C3.03779717 40.19663804 3.02105762 45.59831412 3 51 C0.36 51 -2.28 51 -5 51 C-5 37.8 -5 24.6 -5 11 C-94.1 11 -183.2 11 -275 11 C-275 10.67 -275 10.34 -275 10 C-140.36 9.505 -140.36 9.505 -3 9 C-2.67 13.29 -2.34 17.58 -2 22 C-1.01 21.67 -0.02 21.34 1 21 C0.67 14.07 0.34 7.14 0 0 Z " fill="#E05048" transform="translate(323,69)"/>
<path d="M0 0 C1.54302911 -0.00573832 1.54302911 -0.00573832 3.11723053 -0.01159257 C6.5570573 -0.02189425 9.99671626 -0.01793574 13.43655396 -0.01396179 C15.90571242 -0.01830983 18.37486954 -0.02349328 20.84402466 -0.02944946 C26.85060891 -0.0414505 32.85712745 -0.04399202 38.86371766 -0.0416492 C43.74763207 -0.03986415 48.63153292 -0.04161969 53.51544571 -0.04587364 C54.21128981 -0.04646883 54.9071339 -0.04706402 55.62406418 -0.04767724 C57.03780587 -0.04888903 58.45154755 -0.05010317 59.86528923 -0.05131962 C73.1155961 -0.06218944 86.3658775 -0.06003535 99.6161858 -0.05393478 C111.72796339 -0.04876648 123.83966052 -0.06001974 135.9514222 -0.07903299 C148.39878147 -0.09842272 160.84610271 -0.10666538 173.29347718 -0.10290974 C180.27731164 -0.10099937 187.26107764 -0.1034692 194.24489975 -0.11762428 C200.81291053 -0.13080225 207.38078704 -0.12826264 213.94880676 -0.11521339 C216.35741861 -0.11284708 218.76604178 -0.11558423 221.17464066 -0.12383652 C224.46654863 -0.13430068 227.757916 -0.12620539 231.04980469 -0.11352539 C231.99933325 -0.12089968 232.94886181 -0.12827396 233.92716396 -0.13587171 C241.0920184 -0.07794847 248.40431645 0.69518878 253.71438599 5.94819641 C254.35376099 6.71132141 254.99313599 7.47444641 255.65188599 8.26069641 C255.32188599 8.92069641 254.99188599 9.58069641 254.65188599 10.26069641 C253.66188599 9.93069641 252.67188599 9.60069641 251.65188599 9.26069641 C251.32188599 8.27069641 250.99188599 7.28069641 250.65188599 6.26069641 C244.85256644 2.93634717 239.67528647 2.83673729 233.10049438 2.88647461 C232.04997941 2.8825002 230.99946445 2.8785258 229.91711569 2.87443095 C226.40343715 2.86482058 222.89016249 2.87661883 219.37649536 2.88838196 C216.85483144 2.88595359 214.33316848 2.88223383 211.81150818 2.87731934 C205.6772232 2.86888957 199.54308761 2.87441948 193.40881312 2.88658228 C186.2618512 2.90022352 179.11491715 2.89856254 171.96794552 2.89644895 C159.21396792 2.893261 146.46004622 2.90491558 133.70608521 2.92451477 C121.33660174 2.94351808 108.96718378 2.95060207 96.59768677 2.94502258 C83.12087498 2.93896158 69.64409198 2.93914775 56.16728258 2.95050842 C54.72959932 2.95171568 53.29191605 2.95292166 51.85423279 2.95412636 C50.79324313 2.95503167 50.79324313 2.95503167 49.71081933 2.95595526 C44.73167348 2.95983081 39.75253836 2.95944219 34.77339172 2.95754051 C28.06914324 2.95519394 21.36499093 2.96376489 14.66075706 2.97960091 C12.19970739 2.98384427 9.73864919 2.98469396 7.27759743 2.98191071 C3.91939848 2.97868896 0.56145071 2.9877709 -2.79672241 3 C-3.7715314 2.99622068 -4.74634038 2.99244135 -5.75068903 2.9885475 C-11.00827327 3.02243505 -15.371515 3.53725084 -20.34811401 5.26069641 C-15.64556909 -0.82494996 -6.91842549 -0.02740801 0 0 Z " fill="#D85347" transform="translate(67.34811401367188,58.73930358886719)"/>
<path d="M0 0 C20.79 0 41.58 0 63 0 C62.67 0.99 62.34 1.98 62 3 C61.01 3.33 60.02 3.66 59 4 C59.99 5.65 60.98 7.3 62 9 C58.31600454 9.85941397 54.9780788 10.09712352 51.19995117 10.02172852 C50.05914597 10.00163223 48.91834076 9.98153595 47.7429657 9.96083069 C46.52196671 9.93379562 45.30096771 9.90676056 44.04296875 9.87890625 C42.78486893 9.85529526 41.5267691 9.83168427 40.23054504 9.80735779 C36.89814081 9.74384438 33.56590113 9.67562336 30.23364258 9.60510254 C26.82836451 9.53420157 23.42296893 9.4695152 20.01757812 9.40429688 C13.34492927 9.27524619 6.67242792 9.13998568 0 9 C0 8.34 0 7.68 0 7 C0.66 7 1.32 7 2 7 C2.33 5.68 2.66 4.36 3 3 C2.01 3 1.02 3 0 3 C0 2.01 0 1.02 0 0 Z " fill="#F1453B" transform="translate(287,223)"/>
<path d="M0 0 C1.02456299 -0.00021904 1.02456299 -0.00021904 2.06982422 -0.0004425 C4.33157507 0.00025517 6.59324397 0.00804074 8.85498047 0.01586914 C10.42153885 0.01773384 11.98809781 0.0191575 13.55465698 0.02015686 C17.68106695 0.02397796 21.80744181 0.03380479 25.93383789 0.04486084 C30.14322434 0.05508369 34.35261644 0.05965636 38.56201172 0.06469727 C46.82374659 0.07542741 55.08545292 0.09249897 63.34716797 0.11352539 C63.37031147 12.44817107 63.38809334 24.78281161 63.39898014 37.11747456 C63.40420456 42.8446002 63.41129425 48.57171102 63.42260742 54.29882812 C63.43345191 59.82308791 63.43944814 65.34733341 63.44204521 70.87160301 C63.44389663 72.98197848 63.44751185 75.09235314 63.45289803 77.20272255 C63.46012913 80.15258108 63.46115803 83.10238016 63.46069336 86.05224609 C63.46428864 86.92978043 63.46788391 87.80731476 63.47158813 88.71144104 C63.46579818 92.09557173 63.4248722 94.88041271 62.34716797 98.11352539 C40.23716797 98.11352539 18.12716797 98.11352539 -4.65283203 98.11352539 C-4.65283203 97.78352539 -4.65283203 97.45352539 -4.65283203 97.11352539 C17.12716797 97.11352539 38.90716797 97.11352539 61.34716797 97.11352539 C61.34716797 65.76352539 61.34716797 34.41352539 61.34716797 2.11352539 C51.77716797 2.44352539 42.20716797 2.77352539 32.34716797 3.11352539 C33.00716797 3.77352539 33.66716797 4.43352539 34.34716797 5.11352539 C34.61708703 7.80191924 34.43454154 10.40494475 34.34716797 13.11352539 C33.68716797 13.44352539 33.02716797 13.77352539 32.34716797 14.11352539 C31.85216797 9.65852539 31.85216797 9.65852539 31.34716797 5.11352539 C29.03716797 4.45352539 26.72716797 3.79352539 24.34716797 3.11352539 C24.34716797 3.77352539 24.34716797 4.43352539 24.34716797 5.11352539 C23.68716797 5.11352539 23.02716797 5.11352539 22.34716797 5.11352539 C22.34716797 7.75352539 22.34716797 10.39352539 22.34716797 13.11352539 C21.68716797 13.11352539 21.02716797 13.11352539 20.34716797 13.11352539 C19.65966797 10.36352539 19.65966797 10.36352539 19.34716797 7.11352539 C20.33716797 5.79352539 21.32716797 4.47352539 22.34716797 3.11352539 C8.48716797 2.61852539 8.48716797 2.61852539 -5.65283203 2.11352539 C-5.65283203 7.72352539 -5.65283203 13.33352539 -5.65283203 19.11352539 C-6.31283203 18.78352539 -6.97283203 18.45352539 -7.65283203 18.11352539 C-7.98283203 12.50352539 -8.31283203 6.89352539 -8.65283203 1.11352539 C-5.75368292 -0.33604917 -3.23854903 -0.00580385 0 0 Z " fill="#E75850" transform="translate(290.65283203125,144.886474609375)"/>
<path d="M0 0 C0.78375 0.804375 1.5675 1.60875 2.375 2.4375 C4.71982856 4.98690417 4.71982856 4.98690417 7 6 C7.73075648 8.3140622 8.40138258 10.64828869 9 13 C13.75738234 14.2074323 18.4137909 14.17308761 23.28833008 14.20532227 C24.67930908 14.22017166 24.67930908 14.22017166 26.09838867 14.23532104 C29.15541046 14.26684162 32.21244777 14.29165612 35.26953125 14.31640625 C37.3923126 14.33698393 39.51508993 14.35798062 41.63786316 14.37937927 C47.21911354 14.43451585 52.80040039 14.48396221 58.38171387 14.53222656 C64.07937863 14.58250306 69.77699058 14.63815701 75.47460938 14.69335938 C86.64969444 14.80083803 97.82482541 14.90230581 109 15 C109.83502532 19.31808526 110.0977201 21.16161854 108 25 C107.71519194 27.0742625 107.51125776 29.16071439 107.375 31.25 C107.30023438 32.32765625 107.22546875 33.4053125 107.1484375 34.515625 C107.09945312 35.33546875 107.05046875 36.1553125 107 37 C108.65 37 110.3 37 112 37 C112.66 29.74 113.32 22.48 114 15 C121.26674751 14.82428681 128.53356924 14.65715611 135.80085564 14.50522423 C139.17516818 14.43433471 142.54930869 14.35965269 145.92333984 14.27636719 C149.80031412 14.18253503 153.67737128 14.10168093 157.5546875 14.0234375 C158.76929657 13.99124115 159.98390564 13.9590448 161.23532104 13.9258728 C162.35633209 13.90570099 163.47734314 13.88552917 164.63232422 13.86474609 C166.11791336 13.83143692 166.11791336 13.83143692 167.6335144 13.79745483 C170 14 170 14 172 16 C172.125 19.625 172.125 19.625 172 23 C171.34 23.33 170.68 23.66 170 24 C170 21.69 170 19.38 170 17 C152.18 17 134.36 17 116 17 C115.67 22.94 115.34 28.88 115 35 C114.67 35.99 114.34 36.98 114 38 C111.36 38 108.72 38 106 38 C105.97269506 35.81257121 105.95346745 33.62504093 105.9375 31.4375 C105.92589844 30.21933594 105.91429687 29.00117188 105.90234375 27.74609375 C105.99781634 24.08376529 106.45282902 20.61814442 107 17 C105.85265381 17.00888245 104.70530762 17.01776489 103.52319336 17.0269165 C92.69465831 17.10810912 81.86618527 17.16801674 71.03741455 17.20724869 C65.47061445 17.22809653 59.90406069 17.25636328 54.33740234 17.30175781 C48.96222522 17.34531506 43.58728461 17.36915819 38.21194458 17.37950897 C36.16427896 17.38688258 34.11662584 17.40128152 32.06906128 17.42292023 C29.19419691 17.45208528 26.32030173 17.4559505 23.4453125 17.45410156 C22.60445602 17.46848267 21.76359955 17.48286377 20.89726257 17.49768066 C14.50996031 17.45341982 9.34705202 15.86956514 4.43557739 11.65875626 C1.06769213 8.0500578 0.29001731 4.83362179 0 0 Z " fill="#DD5952" transform="translate(40,222)"/>
<path d="M0 0 C55.11 0 110.22 0 167 0 C167.33 14.85 167.66 29.7 168 45 C167 46 167 46 164.26885128 46.12304783 C163.03825765 46.12212604 161.80766401 46.12120424 160.53977966 46.12025452 C159.85697199 46.12110894 159.17416432 46.12196337 158.47066551 46.12284368 C156.16588309 46.12450043 153.86117228 46.11897397 151.55639648 46.11352539 C149.91094972 46.11324353 148.26550284 46.11340122 146.62005615 46.1139679 C142.13884241 46.11425593 137.65765519 46.10835821 133.17644763 46.10139394 C128.49857895 46.09516142 123.82070972 46.09455668 119.14283752 46.09336853 C110.27824832 46.09025491 101.41367138 46.08204111 92.54908758 46.07201904 C82.45977798 46.06085885 72.3704678 46.05534769 62.28115356 46.05032361 C41.52076218 46.03985852 20.76038186 46.02225849 0 46 C0 45.67 0 45.34 0 45 C54.45 45 108.9 45 165 45 C165 30.48 165 15.96 165 1 C110.55 1 56.1 1 0 1 C0 0.67 0 0.34 0 0 Z " fill="#D8564E" transform="translate(100,109)"/>
<path d="M0 0 C0.66 0 1.32 0 2 0 C2 0.66 2 1.32 2 2 C59.09 2 116.18 2 175 2 C175 2.66 175 3.32 175 4 C117.25 4 59.5 4 0 4 C0 2.68 0 1.36 0 0 Z " fill="#E06159" transform="translate(95,155)"/>
<path d="M0 0 C22.44 0 44.88 0 68 0 C68 1.65 68 3.3 68 5 C45.56 5 23.12 5 0 5 C0 3.35 0 1.7 0 0 Z " fill="#E55048" transform="translate(153,193)"/>
<path d="M0 0 C32.34 0 64.68 0 98 0 C98 3.63 98 7.26 98 11 C65.66 11 33.32 11 0 11 C0 7.37 0 3.74 0 0 Z M1 2 C1 4.64 1 7.28 1 10 C11.76225735 10.0232494 22.52450865 10.04097901 33.28678608 10.05181217 C38.28503117 10.05701356 43.28325899 10.06406096 48.28149414 10.07543945 C53.11201839 10.08636637 57.94252609 10.09229748 62.77306175 10.09487724 C64.6088811 10.09671391 66.44469962 10.10030022 68.28051186 10.10573006 C77.56878629 10.13209041 86.76489882 10.15441833 96 9 C96 6.69 96 4.38 96 2 C64.65 2 33.3 2 1 2 Z " fill="#DC584E" transform="translate(134,263)"/>
<path d="M0 0 C4.30793133 3.7137339 6.63735251 7.83685523 7.28245544 13.46368027 C7.4037824 16.41287027 7.42819662 19.34859585 7.41992188 22.30029297 C7.42839142 23.41827271 7.43686096 24.53625244 7.44558716 25.68811035 C7.46892933 29.3729194 7.46997991 33.05731019 7.46875 36.7421875 C7.47585331 39.31137254 7.48355255 41.880556 7.49182129 44.44973755 C7.50525983 49.83128921 7.50701951 55.21267823 7.50097656 60.59423828 C7.49433929 66.79684242 7.5171954 72.99885136 7.55429029 79.20133483 C7.58879135 85.1894772 7.59531588 91.17730545 7.59120178 97.16556168 C7.59289191 99.70361224 7.60252402 102.24167072 7.62034607 104.77965927 C7.64255796 108.33388811 7.63282039 111.88669269 7.61523438 115.44091797 C7.62849762 116.48224884 7.64176086 117.52357971 7.65542603 118.59646606 C7.57617459 125.51348612 6.11253611 130.38409542 2 136 C-0.31640625 138.15625 -0.31640625 138.15625 -2.5625 139.5 C-3.30628906 139.9640625 -4.05007813 140.428125 -4.81640625 140.90625 C-8.28540342 142.64385144 -11.41857487 143.12511084 -15.27441406 143.16113281 C-16.10918274 143.17074036 -16.94395142 143.1803479 -17.80401611 143.19024658 C-18.69884705 143.19449646 -19.59367798 143.19874634 -20.515625 143.203125 C-21.91032013 143.21167511 -21.91032013 143.21167511 -23.33319092 143.22039795 C-25.30007799 143.22983571 -27.26698079 143.23637707 -29.23388672 143.24023438 C-32.22521989 143.24991977 -35.21585981 143.28094652 -38.20703125 143.3125 C-40.12239177 143.31903269 -42.03775719 143.32428212 -43.953125 143.328125 C-44.83985901 143.3404718 -45.72659302 143.3528186 -46.64019775 143.36553955 C-54.69505585 143.33701221 -60.87562421 141.55021556 -67 136 C-66.505 135.01 -66.505 135.01 -66 134 C-65.40587814 134.42469574 -64.81175629 134.84939148 -64.19963074 135.28695679 C-57.62895471 139.65005462 -52.80063828 140.87732244 -44.98828125 140.7265625 C-43.97581833 140.72755951 -42.96335541 140.72855652 -41.92021179 140.72958374 C-39.79658081 140.72493463 -37.67293542 140.70566985 -35.54956055 140.67236328 C-32.31002964 140.62496385 -29.07377674 140.63128859 -25.83398438 140.64453125 C-23.76039718 140.63338169 -21.68682372 140.61916443 -19.61328125 140.6015625 C-18.17242912 140.60429672 -18.17242912 140.60429672 -16.70246887 140.60708618 C-10.58182196 140.4786034 -7.09943098 139.37888271 -2 136 C-1.34 136 -0.68 136 0 136 C0.33 134.35 0.66 132.7 1 131 C1.66 131 2.32 131 3 131 C3.06058594 130.36191406 3.12117188 129.72382813 3.18359375 129.06640625 C3.26738281 128.24011719 3.35117187 127.41382813 3.4375 126.5625 C3.51871094 125.73878906 3.59992188 124.91507812 3.68359375 124.06640625 C4 122 4 122 5 121 C5.10626822 119.60159907 5.14403936 118.19791522 5.15390015 116.79551697 C5.16250061 115.88856079 5.17110107 114.98160461 5.17996216 114.04716492 C5.18422211 113.04409805 5.18848206 112.04103119 5.19287109 111.00756836 C5.20104858 109.95713348 5.20922607 108.90669861 5.21765137 107.82443237 C5.24257019 104.32957538 5.25904111 100.83475929 5.2734375 97.33984375 C5.28142302 95.55237323 5.28142302 95.55237323 5.28956985 93.72879219 C5.31633413 87.41726448 5.33569544 81.10575674 5.35009766 74.79418945 C5.36672119 68.27614125 5.41147111 61.75860107 5.4624691 55.24074459 C5.49614916 50.22979663 5.50767624 45.21896883 5.51332474 40.20791817 C5.52003887 37.80578305 5.53526497 35.40365588 5.55921555 33.00163078 C5.59087399 29.63340039 5.59090164 26.26653382 5.58349609 22.89819336 C5.59990143 21.90929611 5.61630676 20.92039886 5.63320923 19.90153503 C5.58049527 14.02909744 4.6780462 10.45409381 1.07323647 5.75748539 C0 4 0 4 0 0 Z " fill="#E4534B" transform="translate(351,128)"/>
<path d="M0 0 C15.18 0 30.36 0 46 0 C46.020625 5.23875 46.04125 10.4775 46.0625 15.875 C46.071604 17.52741699 46.08070801 19.17983398 46.09008789 20.88232422 C46.09258545 22.1767041 46.09508301 23.47108398 46.09765625 24.8046875 C46.10277222 25.48539307 46.10788818 26.16609863 46.11315918 26.86743164 C46.1140718 31.7718564 46.1140718 31.7718564 45 34 C41.7 34 38.4 34 35 34 C35 33.67 35 33.34 35 33 C37.475 32.505 37.475 32.505 40 32 C40.33 22.43 40.66 12.86 41 3 C27.8 3 14.6 3 1 3 C0.67 3.66 0.34 4.32 0 5 C0 3.35 0 1.7 0 0 Z " fill="#F34A40" transform="translate(97,165)"/>
<path d="M0 0 C0 0.99 0 1.98 0 3 C-37.29 3 -74.58 3 -113 3 C-113 2.34 -113 1.68 -113 1 C-75.32340919 0.1996298 -37.68480103 -0.14553684 0 0 Z " fill="#F5463A" transform="translate(267,166)"/>
<path d="M0 0 C55.77 0 111.54 0 169 0 C169 16.5 169 33 169 50 C168.01 49.67 167.02 49.34 166 49 C166.33 48.01 166.66 47.02 167 46 C167 31.48 167 16.96 167 2 C111.89 1.67 56.78 1.34 0 1 C0 0.67 0 0.34 0 0 Z " fill="#F84437" transform="translate(100,107)"/>
<path d="M0 0 C21.45 0 42.9 0 65 0 C65 1.65 65 3.3 65 5 C56.68989216 4.89257473 48.37987803 4.77995699 40.06993294 4.66066074 C36.21152754 4.60543434 32.35311456 4.55201481 28.49462891 4.50268555 C24.77281878 4.45503779 21.05110191 4.40269486 17.32940292 4.34705925 C15.90762522 4.32663755 14.48582194 4.30792415 13.06399918 4.29092598 C11.07662369 4.26687819 9.08933095 4.23626002 7.10205078 4.20532227 C5.96953888 4.18977798 4.83702698 4.1742337 3.67019653 4.15821838 C1 4 1 4 -1 3 C-0.67 2.01 -0.34 1.02 0 0 Z " fill="#F5453D" transform="translate(286,216)"/>
<path d="M0 0 C2.81688642 1.64890912 3.63560511 2.7708088 4.5546875 5.87109375 C5.20053206 9.3573363 5.20662777 11.48343058 3.875 14.8125 C1.65883242 17.39802885 0.1806324 18.72774704 -3 20 C-7.29157904 20.29066472 -10.12024731 19.70380215 -13.5 17 C-15.55725041 12.88549917 -15.90529556 9.51016616 -15 5 C-11.3726569 -0.9246604 -6.38170741 -1.13189067 0 0 Z M-10 7 C-10.58350505 9.45709375 -10.58350505 9.45709375 -10 12 C-7.59141286 13.8624438 -7.59141286 13.8624438 -5 15 C-3.35 13.35 -1.7 11.7 0 10 C-1.1375562 7.40858714 -1.1375562 7.40858714 -3 5 C-6.48619874 4.40479534 -7.46370752 4.46370752 -10 7 Z " fill="#E54C45" transform="translate(71,86)"/>
<path d="M0 0 C0.33 0 0.66 0 1 0 C1.00331015 0.57738576 1.00662029 1.15477152 1.01003075 1.74965382 C1.09147778 15.84029571 1.18364 29.93083407 1.28752708 44.02132893 C1.33751273 50.83556722 1.38395642 57.64979432 1.421875 64.46411133 C1.45850679 71.04535061 1.50525631 77.62646891 1.55806351 84.20760155 C1.57653707 86.71325645 1.59167073 89.21893836 1.60334396 91.72463417 C1.62032714 95.24534556 1.64939101 98.76577199 1.68115234 102.28637695 C1.68331253 103.31281311 1.68547272 104.33924927 1.68769836 105.39678955 C1.7646582 112.11374797 2.59623818 118.43235945 4 125 C3.34 125 2.68 125 2 125 C-1.28320375 118.80831112 -1.4168841 113.51728624 -1.35644531 106.58862305 C-1.35848969 105.45939926 -1.36053406 104.33017548 -1.36264038 103.16673279 C-1.36563953 99.44822807 -1.34720076 95.73017048 -1.328125 92.01171875 C-1.32506656 89.42576711 -1.32319108 86.83981382 -1.32244873 84.25386047 C-1.31785154 78.84291831 -1.303837 73.43213446 -1.28125 68.02124023 C-1.25230297 61.07252509 -1.24201843 54.12391213 -1.2375679 47.17514324 C-1.23401899 41.84018311 -1.22360918 36.50524587 -1.21169281 31.17029762 C-1.20598249 28.60694381 -1.20122632 26.04358769 -1.19742584 23.48023033 C-1.19058219 19.90824685 -1.17696057 16.33635783 -1.16113281 12.7644043 C-1.16001495 11.69790649 -1.15889709 10.63140869 -1.15774536 9.53259277 C-1.15203522 8.56391769 -1.14632507 7.59524261 -1.14044189 6.59721375 C-1.13746723 5.75272517 -1.13449257 4.9082366 -1.13142776 4.03815746 C-1 2 -1 2 0 0 Z " fill="#DE5C54" transform="translate(280,136)"/>
<path d="M0 0 C2.35171131 0.59861742 4.6859378 1.26924352 7 2 C9.15580306 6.31160613 8.12268117 11.50927531 7 16 C15.91 16 24.82 16 34 16 C34 21.28 34 26.56 34 32 C33.34 32 32.68 32 32 32 C31.93941406 31.07316406 31.87882812 30.14632812 31.81640625 29.19140625 C31.73261719 27.99386719 31.64882813 26.79632813 31.5625 25.5625 C31.48128906 24.36753906 31.40007812 23.17257813 31.31640625 21.94140625 C31.32343886 19.11429756 31.32343886 19.11429756 30 18 C28.40486107 17.87727151 26.80445068 17.82218957 25.20483398 17.79467773 C23.67335976 17.7647599 23.67335976 17.7647599 22.11094666 17.73423767 C20.44534447 17.70916893 20.44534447 17.70916893 18.74609375 17.68359375 C17.61551041 17.66281265 16.48492706 17.64203156 15.32008362 17.62062073 C11.69262015 17.55500203 8.06508167 17.49618323 4.4375 17.4375 C1.98501814 17.39432649 -0.467456 17.3507126 -2.91992188 17.30664062 C-8.94653427 17.19930816 -14.97322201 17.0975651 -21 17 C-21 16.67 -21 16.34 -21 16 C-13.74 15.67 -6.48 15.34 1 15 C1 14.34 1 13.68 1 13 C-0.65 12.34 -2.3 11.68 -4 11 C-3.34 10.67 -2.68 10.34 -2 10 C-2.185625 9.236875 -2.37125 8.47375 -2.5625 7.6875 C-3 5 -3 5 -2 2 C-1.34 2 -0.68 2 0 2 C0 1.34 0 0.68 0 0 Z M1 4 C1.33 5.32 1.66 6.64 2 8 C2.99 7.67 3.98 7.34 5 7 C4.67 6.01 4.34 5.02 4 4 C3.01 4 2.02 4 1 4 Z " fill="#F3493D" transform="translate(315,148)"/>
<path d="M0 0 C1.05479805 0.00636726 1.05479805 0.00636726 2.13090515 0.01286316 C4.36241006 0.02956815 6.59298988 0.06720261 8.82421875 0.10546875 C10.34308585 0.12052627 11.86196721 0.13421281 13.38085938 0.14648438 C17.09144309 0.17944402 20.80149053 0.23116859 24.51171875 0.29296875 C25.00671875 2.76796875 25.00671875 2.76796875 25.51171875 5.29296875 C12.64171875 5.29296875 -0.22828125 5.29296875 -13.48828125 5.29296875 C-10.77690692 -0.12977992 -5.41682809 -0.06474297 0 0 Z " fill="#F14639" transform="translate(298.48828125,232.70703125)"/>
<path d="M0 0 C0.91644287 0.00523682 1.83288574 0.01047363 2.77709961 0.01586914 C3.76645508 0.0190918 4.75581055 0.02231445 5.77514648 0.02563477 C6.81606445 0.03401367 7.85698242 0.04239258 8.92944336 0.05102539 C10.49662109 0.05779297 10.49662109 0.05779297 12.09545898 0.06469727 C14.68600996 0.07652627 17.27644895 0.0930085 19.86694336 0.11352539 C19.86694336 0.44352539 19.86694336 0.77352539 19.86694336 1.11352539 C12.93694336 1.11352539 6.00694336 1.11352539 -1.13305664 1.11352539 C-1.13305664 6.72352539 -1.13305664 12.33352539 -1.13305664 18.11352539 C6.45694336 18.11352539 14.04694336 18.11352539 21.86694336 18.11352539 C21.86694336 12.83352539 21.86694336 7.55352539 21.86694336 2.11352539 C22.85694336 2.44352539 23.84694336 2.77352539 24.86694336 3.11352539 C24.86694336 9.05352539 24.86694336 14.99352539 24.86694336 21.11352539 C20.94986395 21.19438253 17.03444977 21.25396153 13.11694336 21.30102539 C12.00577148 21.32616211 10.89459961 21.35129883 9.74975586 21.37719727 C8.67983398 21.38686523 7.60991211 21.3965332 6.50756836 21.40649414 C5.52304687 21.42220459 4.53852539 21.43791504 3.52416992 21.45410156 C0.39940257 21.05360079 -0.94949455 20.37032932 -3.13305664 18.11352539 C-3.45570178 15.10019741 -3.55681795 12.48516346 -3.44555664 9.48852539 C-3.43588867 8.69961914 -3.4262207 7.91071289 -3.41625977 7.09790039 C-3.27945795 0.17453908 -3.27945795 0.17453908 0 0 Z " fill="#E4524B" transform="translate(324.133056640625,191.886474609375)"/>
<path d="M0 0 C9.9 0 19.8 0 30 0 C29.01 0.66 28.02 1.32 27 2 C42.84 2.495 42.84 2.495 59 3 C59.495 3.99 59.495 3.99 60 5 C41.52 5 23.04 5 4 5 C4.66 4.34 5.32 3.68 6 3 C3.03 2.505 3.03 2.505 0 2 C0 1.34 0 0.68 0 0 Z " fill="#DD5650" transform="translate(286,162)"/>
<path d="M0 0 C13.53 0 27.06 0 41 0 C40.67 0.66 40.34 1.32 40 2 C42.475 2.495 42.475 2.495 45 3 C45.33 2.34 45.66 1.68 46 1 C46 1.99 46 2.98 46 4 C30.49 4 14.98 4 -1 4 C-0.67 2.68 -0.34 1.36 0 0 Z " fill="#EF5147" transform="translate(97,196)"/>
<path d="M0 0 C0.33 0 0.66 0 1 0 C1 6.6 1 13.2 1 20 C-17.81 20 -36.62 20 -56 20 C-55.67 27.26 -55.34 34.52 -55 42 C-57.64 42 -60.28 42 -63 42 C-64.32229189 39.35541621 -64.09677194 37.32238699 -64.0625 34.375 C-64.05347656 33.37210938 -64.04445312 32.36921875 -64.03515625 31.3359375 C-64.02355469 30.56507813 -64.01195312 29.79421875 -64 29 C-63.34 29 -62.68 29 -62 29 C-62 32.96 -62 36.92 -62 41 C-60.35 41 -58.7 41 -57 41 C-57.33 39.35 -57.66 37.7 -58 36 C-58 30.39 -58 24.78 -58 19 C-38.86 19 -19.72 19 0 19 C0 12.73 0 6.46 0 0 Z " fill="#E9554E" transform="translate(275,218)"/>
<path d="M0 0 C0.99 0 1.98 0 3 0 C3.33 1.98 3.66 3.96 4 6 C3.67 6 3.34 6 3 6 C2.67 11.28 2.34 16.56 2 22 C-1.22875269 22.24928974 -4.45629019 22.47506752 -7.6875 22.6875 C-8.59951172 22.76033203 -9.51152344 22.83316406 -10.45117188 22.90820312 C-15.52123734 23.22162535 -18.88122667 23.39735886 -23 20 C-24 19 -24 19 -24.09765625 15.18359375 C-24.09191138 13.60152953 -24.07889593 12.01948969 -24.0625 10.4375 C-24.041875 7.653125 -24.02125 4.86875 -24 2 C-16.08 2 -8.16 2 0 2 C0 1.34 0 0.68 0 0 Z M-22 3 C-22 8.61 -22 14.22 -22 20 C-14.74 20 -7.48 20 0 20 C0 14.39 0 8.78 0 3 C-7.26 3 -14.52 3 -22 3 Z " fill="#E1544C" transform="translate(313,190)"/>
<path d="M0 0 C1.27208622 0.62244599 2.54261882 1.24806767 3.8125 1.875 C4.52019531 2.22304688 5.22789062 2.57109375 5.95703125 2.9296875 C8 4 8 4 11 6 C13.14989754 6.31564632 13.14989754 6.31564632 15.54394531 6.29052734 C16.46210022 6.30328705 17.38025513 6.31604675 18.32623291 6.32919312 C19.3168573 6.33141876 20.30748169 6.33364441 21.328125 6.3359375 C22.35049255 6.3425943 23.37286011 6.3492511 24.4262085 6.35610962 C26.59157512 6.3662405 28.75697299 6.37092651 30.92236328 6.37060547 C34.22351158 6.37496502 37.52330827 6.41124324 40.82421875 6.44921875 C42.92968294 6.45508964 45.03515347 6.45905721 47.140625 6.4609375 C48.6144162 6.48249405 48.6144162 6.48249405 50.11798096 6.50448608 C56.39137228 6.46301282 59.7319991 5.34187204 65 2 C65.99 2.33 66.98 2.66 68 3 C66.75443908 3.81928886 65.50333365 4.63015186 64.25 5.4375 C63.55390625 5.88996094 62.8578125 6.34242188 62.140625 6.80859375 C58.72575063 8.70920813 55.59753685 9.12496032 51.72558594 9.16113281 C50.89081726 9.17074036 50.05604858 9.1803479 49.19598389 9.19024658 C48.30115295 9.19449646 47.40632202 9.19874634 46.484375 9.203125 C45.08967987 9.21167511 45.08967987 9.21167511 43.66680908 9.22039795 C41.69992201 9.22983571 39.73301921 9.23637707 37.76611328 9.24023438 C34.77478011 9.24991977 31.78414019 9.28094652 28.79296875 9.3125 C26.87760823 9.31903269 24.96224281 9.32428212 23.046875 9.328125 C22.16014099 9.3404718 21.27340698 9.3528186 20.35980225 9.36553955 C12.46966625 9.33759559 5.85974878 7.67663163 0 2 C0 1.34 0 0.68 0 0 Z " fill="#DE6056" transform="translate(284,262)"/>
<path d="M0 0 C0.33 0 0.66 0 1 0 C1 3.63 1 7.26 1 11 C-7.58 11 -16.16 11 -25 11 C-25 10.67 -25 10.34 -25 10 C-24.11477661 9.96241577 -24.11477661 9.96241577 -23.21166992 9.92407227 C-20.53673186 9.80799948 -17.8621362 9.68532428 -15.1875 9.5625 C-14.25873047 9.52318359 -13.32996094 9.48386719 -12.37304688 9.44335938 C-11.48037109 9.40146484 -10.58769531 9.35957031 -9.66796875 9.31640625 C-8.84578857 9.27974854 -8.0236084 9.24309082 -7.17651367 9.20532227 C-4.82094822 9.06572228 -4.82094822 9.06572228 -2 8 C-2.66 6.68 -3.32 5.36 -4 4 C-21.16 4 -38.32 4 -56 4 C-56 3.67 -56 3.34 -56 3 C-37.85 3 -19.7 3 -1 3 C-0.67 2.01 -0.34 1.02 0 0 Z " fill="#EE5249" transform="translate(350,223)"/>
<path d="M0 0 C19.14 0 38.28 0 58 0 C58 1.65 58 3.3 58 5 C57.505 3.02 57.505 3.02 57 1 C38.52 1 20.04 1 1 1 C2.57303392 10.61063802 2.57303392 10.61063802 5 20 C5.06740865 21.56118428 5.08514456 23.1250252 5.0625 24.6875 C5.05347656 25.49574219 5.04445313 26.30398437 5.03515625 27.13671875 C5.02355469 27.75160156 5.01195312 28.36648437 5 29 C2.60337948 25.40506922 2.08221505 22.04612552 1.375 17.875 C1.17390625 16.7921875 1.17390625 16.7921875 0.96875 15.6875 C0.84242188 14.96304688 0.71609375 14.23859375 0.5859375 13.4921875 C0.41650635 12.52321533 0.41650635 12.52321533 0.24365234 11.53466797 C-0.124335 7.7065672 0 3.84574702 0 0 Z " fill="#D45750" transform="translate(426,200)"/>
<path d="M0 0 C0.66 0 1.32 0 2 0 C-1.76215598 13.32595248 -12.89743789 22.20414308 -23.75 29.875 C-24.30526367 30.26905029 -24.86052734 30.66310059 -25.43261719 31.0690918 C-28.2231061 32.98892453 -30.61847747 34.4911301 -34 35 C-34 34.01 -34 33.02 -34 32 C-31 30 -31 30 -28 29 C-27.34 28.34 -26.68 27.68 -26 27 C-23.38843122 25.52011102 -20.93158222 24.62819619 -18 24 C-18 23.34 -18 22.68 -18 22 C-17.34 22 -16.68 22 -16 22 C-16 21.34 -16 20.68 -16 20 C-15.03372107 18.96737953 -14.02690137 17.97235465 -13 17 C-11.44731782 15.19051288 -9.92416361 13.35891489 -8.40234375 11.5234375 C-7 10 -7 10 -5 9 C-4.67 8.01 -4.34 7.02 -4 6 C-3.34 6 -2.68 6 -2 6 C-1.34 4.02 -0.68 2.04 0 0 Z " fill="#E45149" transform="translate(631,239)"/>
<path d="M0 0 C1.01973129 3.05919388 1.11533602 5.12418025 1.09765625 8.32421875 C1.09282227 9.86625977 1.09282227 9.86625977 1.08789062 11.43945312 C1.07951172 12.51130859 1.07113281 13.58316406 1.0625 14.6875 C1.05798828 15.77095703 1.05347656 16.85441406 1.04882812 17.97070312 C1.03703743 20.64719085 1.02058063 23.32356777 1 26 C0.01 26 -0.98 26 -2 26 C-3.14506676 23.70986647 -3.10280717 22.47685185 -3.0625 19.9375 C-3.05476563 19.14085938 -3.04703125 18.34421875 -3.0390625 17.5234375 C-3.01302083 15.84114583 -2.98697917 14.15885417 -2.9609375 12.4765625 C-2.95320313 11.67992188 -2.94546875 10.88328125 -2.9375 10.0625 C-2.92589844 9.33160156 -2.91429687 8.60070312 -2.90234375 7.84765625 C-2.88176172 5.90365825 -2.88176172 5.90365825 -4 4 C-2.68 2.68 -1.36 1.36 0 0 Z " fill="#FC4135" transform="translate(323,92)"/>
<path d="M0 0 C0.74900574 0.00141495 1.49801147 0.0028299 2.26971436 0.00428772 C4.65380912 0.00986966 7.03780878 0.0224188 9.421875 0.03515625 C11.04166531 0.04017359 12.66145709 0.04473609 14.28125 0.04882812 C18.24482812 0.05983317 22.20833545 0.07708534 26.171875 0.09765625 C26.171875 0.42765625 26.171875 0.75765625 26.171875 1.09765625 C25.05159912 1.13524048 25.05159912 1.13524048 23.90869141 1.17358398 C20.53790233 1.28933838 17.16740717 1.41215753 13.796875 1.53515625 C12.62125 1.57447266 11.445625 1.61378906 10.234375 1.65429688 C9.11289062 1.69619141 7.99140625 1.73808594 6.8359375 1.78125 C5.28060303 1.83623657 5.28060303 1.83623657 3.69384766 1.89233398 C1.17762334 1.93929848 1.17762334 1.93929848 -0.828125 3.09765625 C-2.53515235 3.16761639 -4.24480503 3.18205779 -5.953125 3.16015625 C-6.86320312 3.15113281 -7.77328125 3.14210938 -8.7109375 3.1328125 C-9.40960938 3.12121094 -10.10828125 3.10960938 -10.828125 3.09765625 C-11.158125 4.08765625 -11.488125 5.07765625 -11.828125 6.09765625 C-12.9109375 6.15953125 -12.9109375 6.15953125 -14.015625 6.22265625 C-18.06087317 7.4811779 -19.32293757 9.73354742 -21.828125 13.09765625 C-21.828125 9.4603469 -20.6001952 8.19004831 -18.2578125 5.5234375 C-12.88121069 0.16152586 -7.20216713 -0.05140966 0 0 Z " fill="#E15147" transform="translate(303.828125,121.90234375)"/>
<path d="M0 0 C12.75585095 2.05004747 25.76012262 8.19132087 36 16 C36.495 16.99 36.495 16.99 37 18 C35.35 17.67 33.7 17.34 32 17 C32 16.34 32 15.68 32 15 C31.360625 14.7525 30.72125 14.505 30.0625 14.25 C27.66209423 13.27024254 25.30161327 12.24920178 22.9375 11.1875 C15.40220828 7.82308045 7.85808116 4.53786917 0 2 C0 1.34 0 0.68 0 0 Z " fill="#E35449" transform="translate(577,130)"/>
<path d="M0 0 C1.62269286 3.24538571 0.7612827 6.57422786 0 10 C-0.97383946 11.68208635 -1.97695052 13.34738161 -3 15 C-5.68147065 22.11976691 -6.90455214 29.49940404 -8 37 C-8.33 37 -8.66 37 -9 37 C-9.99390726 23.9687715 -6.58771239 11.23150965 0 0 Z " fill="#DB564E" transform="translate(444,55)"/>
<path d="M0 0 C2.62506802 -0.02690844 5.24986173 -0.04679404 7.875 -0.0625 C8.62136719 -0.07087891 9.36773437 -0.07925781 10.13671875 -0.08789062 C15.7734375 -0.11328125 15.7734375 -0.11328125 18 1 C18 1.99 18 2.98 18 4 C17.34 4 16.68 4 16 4 C15.34 5.32 14.68 6.64 14 8 C12.06166004 7.91284983 10.1242571 7.80467036 8.1875 7.6875 C7.10855469 7.62949219 6.02960938 7.57148438 4.91796875 7.51171875 C2 7 2 7 0.05078125 5.70703125 C-1 4 -1 4 -0.6875 1.8125 C-0.460625 1.214375 -0.23375 0.61625 0 0 Z M2 2 C2 2.99 2 3.98 2 5 C6.29 5 10.58 5 15 5 C15 4.01 15 3.02 15 2 C10.71 2 6.42 2 2 2 Z " fill="#EC5048" transform="translate(310,132)"/>
<path d="M0 0 C1.134375 0.020625 2.26875 0.04125 3.4375 0.0625 C-3.62984519 4.77406346 -11.76162462 7.30144272 -19.9375 9.375 C-20.60289795 9.54628418 -21.2682959 9.71756836 -21.95385742 9.89404297 C-25.89837261 10.84587702 -29.51052895 11.23185483 -33.5625 11.0625 C-33.2325 10.0725 -32.9025 9.0825 -32.5625 8.0625 C-31.61375 8.083125 -30.665 8.10375 -29.6875 8.125 C-26.65583717 8.28801826 -26.65583717 8.28801826 -24.5625 7.0625 C-23.02226004 6.99299459 -21.47915012 6.97797643 -19.9375 7 C-18.71160156 7.01353516 -18.71160156 7.01353516 -17.4609375 7.02734375 C-16.52121094 7.04474609 -16.52121094 7.04474609 -15.5625 7.0625 C-15.5625 6.4025 -15.5625 5.7425 -15.5625 5.0625 C-13.9125 5.0625 -12.2625 5.0625 -10.5625 5.0625 C-10.5625 4.4025 -10.5625 3.7425 -10.5625 3.0625 C-9.1084375 2.5984375 -9.1084375 2.5984375 -7.625 2.125 C-1.5798913 0.02771739 -1.5798913 0.02771739 0 0 Z " fill="#E55349" transform="translate(593.5625,273.9375)"/>
<path d="M0 0 C21.45 0 42.9 0 65 0 C65 1.65 65 3.3 65 5 C64.01 4.67 63.02 4.34 62 4 C62 3.34 62 2.68 62 2 C41.54 1.67 21.08 1.34 0 1 C0 0.67 0 0.34 0 0 Z " fill="#DE4D46" transform="translate(286,216)"/>
<path d="M0 0 C1.32 0.33 2.64 0.66 4 1 C4 5.29 4 9.58 4 14 C-3.92 14 -11.84 14 -20 14 C-20 13.67 -20 13.34 -20 13 C-13.4 13 -6.8 13 0 13 C0 8.71 0 4.42 0 0 Z " fill="#F84E42" transform="translate(316,199)"/>
<path d="M0 0 C7.47394574 -0.37369729 13.82140651 0.95938459 21 3 C21 3.99 21 4.98 21 6 C21.721875 6.061875 22.44375 6.12375 23.1875 6.1875 C27.56406177 7.45184007 29.89678881 10.34518321 32.375 14.0625 C33.13426962 16.41623583 32.8212254 17.70056887 32 20 C31.46375 18.948125 30.9275 17.89625 30.375 16.8125 C25.7077442 8.8137892 18.49272587 5.90875861 10 3 C6.68510008 2.16264247 3.38142732 1.50122927 0 1 C0 0.67 0 0.34 0 0 Z " fill="#DD534D" transform="translate(549,177)"/>
<path d="M0 0 C3.57354227 0.44669278 6.86897573 0.96326422 10.34375 1.9375 C16.61745293 3.53647948 23.07306453 3.98491903 29.5 4.625 C30.799375 4.7590625 32.09875 4.893125 33.4375 5.03125 C36.62450978 5.35932454 39.81196315 5.68208825 43 6 C43 6.33 43 6.66 43 7 C11.82940772 7.6039512 11.82940772 7.6039512 0 1 C0 0.67 0 0.34 0 0 Z " fill="#E0564B" transform="translate(506,118)"/>
<path d="M0 0 C0.33 0 0.66 0 1 0 C1.19625099 3.95795086 1.38051982 7.91636935 1.5625 11.875 C1.61857422 13.00292969 1.67464844 14.13085938 1.73242188 15.29296875 C1.78076172 16.36933594 1.82910156 17.44570312 1.87890625 18.5546875 C1.9260376 19.54968262 1.97316895 20.54467773 2.02172852 21.56982422 C2 24 2 24 1 26 C-2.3 26 -5.6 26 -9 26 C-9 25.67 -9 25.34 -9 25 C-6.36 24.34 -3.72 23.68 -1 23 C-1.00523682 22.40985107 -1.01047363 21.81970215 -1.01586914 21.21166992 C-1.03666047 18.53695745 -1.04966701 15.86226199 -1.0625 13.1875 C-1.07087891 12.25873047 -1.07925781 11.32996094 -1.08789062 10.37304688 C-1.09111328 9.48037109 -1.09433594 8.58769531 -1.09765625 7.66796875 C-1.10289307 6.84578857 -1.10812988 6.0236084 -1.11352539 5.17651367 C-1 3 -1 3 0 0 Z " fill="#FB4238" transform="translate(141,173)"/>
<path d="M0 0 C9.67741935 2.09677419 9.67741935 2.09677419 12 5 C12.32722467 7.754141 12.1830712 10.20816422 12 13 C11.01 13.495 11.01 13.495 10 14 C9.67 11.03 9.34 8.06 9 5 C6.69 4.34 4.38 3.68 2 3 C2 3.66 2 4.32 2 5 C1.34 5 0.68 5 0 5 C0 7.64 0 10.28 0 13 C-0.66 13 -1.32 13 -2 13 C-2.6875 10.25 -2.6875 10.25 -3 7 C-1.5625 4.8125 -1.5625 4.8125 0 3 C0 2.01 0 1.02 0 0 Z " fill="#F54C45" transform="translate(313,145)"/>
<path d="M0 0 C3.20815845 -0.08774066 6.41600462 -0.14063706 9.625 -0.1875 C10.52863281 -0.21263672 11.43226563 -0.23777344 12.36328125 -0.26367188 C17.77229455 -0.32289465 21.24395135 0.15797093 26 3 C29.2366963 3.70758326 29.2366963 3.70758326 32 4 C31.67 4.99 31.34 5.98 31 7 C32.32 7.33 33.64 7.66 35 8 C34.67 8.99 34.34 9.98 34 11 C33.48953125 10.60167969 32.9790625 10.20335938 32.453125 9.79296875 C22.5765028 2.595643 11.9521346 1.55905146 0 1 C0 0.67 0 0.34 0 0 Z " fill="#DD524B" transform="translate(524,63)"/>
<path d="M0 0 C0 2.31 0 4.62 0 7 C-0.66 7.33 -1.32 7.66 -2 8 C-2.495 4.535 -2.495 4.535 -3 1 C-23.295 0.505 -23.295 0.505 -44 0 C-44 -0.33 -44 -0.66 -44 -1 C-38.37697872 -1.19250668 -32.75375155 -1.37119078 -27.12988281 -1.53710938 C-25.21700279 -1.59548822 -23.30423387 -1.65763491 -21.39160156 -1.72363281 C-18.64148183 -1.81787368 -15.89124652 -1.89853224 -13.140625 -1.9765625 C-12.28631897 -2.00875885 -11.43201294 -2.0409552 -10.55181885 -2.0741272 C-9.75129089 -2.09429901 -8.95076294 -2.11447083 -8.12597656 -2.13525391 C-7.07340668 -2.16856308 -7.07340668 -2.16856308 -5.99957275 -2.20254517 C-3.64111191 -1.96364671 -2.04637375 -1.16471165 0 0 Z " fill="#F4554E" transform="translate(212,238)"/>
<path d="M0 0 C6.93389041 5.63378596 13.87441601 11.94975332 18 20 C17.67 20.66 17.34 21.32 17 22 C16.67 21.01 16.34 20.02 16 19 C15.01 19.33 14.02 19.66 13 20 C11.5 18.875 11.5 18.875 10 17 C9.8125 13.8125 9.8125 13.8125 10 11 C8.35 10.67 6.7 10.34 5 10 C4.9175 9.4225 4.835 8.845 4.75 8.25 C3.7973369 5.39201069 2.13946926 4.07045412 0 2 C0 1.34 0 0.68 0 0 Z " fill="#E15048" transform="translate(615,148)"/>
<path d="M0 0 C0.90457555 3.02445872 1.00162382 5.48656681 0.8125 8.625 C0.7732048 15.29536047 2.51036712 21.01990411 6.82421875 26.18359375 C8.49560422 27.86854015 10.19077808 29.46521061 12 31 C8.86248779 31 7.60242414 30.64820195 5 29 C4.67 28.01 4.34 27.02 4 26 C3.525625 25.5875 3.05125 25.175 2.5625 24.75 C-1.44828663 20.25791897 -1.24965455 13.83191757 -1.1875 8.125 C-1.18105469 6.80757813 -1.17460937 5.49015625 -1.16796875 4.1328125 C-1 1 -1 1 0 0 Z " fill="#DB534F" transform="translate(493,85)"/>
<path d="M0 0 C0.66 0.33 1.32 0.66 2 1 C2 1.99 2 2.98 2 4 C2.58007812 4.06058594 3.16015625 4.12117187 3.7578125 4.18359375 C8.20092863 4.66016561 12.59905423 5.21008666 17 6 C17 6.33 17 6.66 17 7 C7.97736473 6.50804657 -1.01617265 5.99820304 -10 5 C-9.67 4.34 -9.34 3.68 -9 3 C-6.66752239 2.66073053 -4.33414529 2.32759934 -2 2 C-1.34 1.34 -0.68 0.68 0 0 Z " fill="#E3554C" transform="translate(531,170)"/>
<path d="M0 0 C0.99 0.33 1.98 0.66 3 1 C3.6875 3.0625 3.6875 3.0625 4 5 C4.99 5 5.98 5 7 5 C8.36363208 6.97946592 9.69418644 8.9819245 11 11 C12.31558703 12.02323436 13.64377755 13.03126968 15 14 C15 14.66 15 15.32 15 16 C15.66 16 16.32 16 17 16 C16.67 17.32 16.34 18.64 16 20 C9.80135701 14.09446273 4.09296899 8.62139054 0 1 C0 0.67 0 0.34 0 0 Z " fill="#E2544B" transform="translate(444,133)"/>
<path d="M0 0 C1.65 0 3.3 0 5 0 C5 0.99 5 1.98 5 3 C7.31 3 9.62 3 12 3 C12.3403125 3.928125 12.3403125 3.928125 12.6875 4.875 C14.38416443 7.6219805 16.05251711 7.86635273 19 9 C19.33 9.99 19.66 10.98 20 12 C12.33148025 9.98196849 5.40962672 5.75863489 0 0 Z " fill="#E3534B" transform="translate(456,264)"/>
<path d="M0 0 C0.474375 0.474375 0.94875 0.94875 1.4375 1.4375 C5.11644797 3.68076096 8.7621112 3.73739578 13 4 C13 4.33 13 4.66 13 5 C-0.86 5 -14.72 5 -29 5 C-29 4.67 -29 4.34 -29 4 C-19.76 3.67 -10.52 3.34 -1 3 C-0.67 2.01 -0.34 1.02 0 0 Z " fill="#F4544B" transform="translate(545,281)"/>
<path d="M0 0 C3.11917596 0.04488023 4.04888663 0.22121802 6.75 2 C8.1875 4.3125 8.1875 4.3125 7.9375 7.0625 C7.69 7.805 7.4425 8.5475 7.1875 9.3125 C3.30401516 10.60699495 0.28052664 10.44453312 -3.8125 10.3125 C-4.8125 9.3125 -4.8125 9.3125 -4.9453125 7.5 C-4.94273437 6.778125 -4.94015625 6.05625 -4.9375 5.3125 C-4.94007813 4.590625 -4.94265625 3.86875 -4.9453125 3.125 C-4.69183569 -0.33421289 -3.61819753 0.29657357 0 0 Z M-3.8125 3.3125 C-4.14593551 5.85457971 -4.14593551 5.85457971 -3.8125 8.3125 C-2.64213695 9.70537806 -2.64213695 9.70537806 0.625 9.5 C4.23782721 9.70814928 4.23782721 9.70814928 6.1875 7.3125 C5.82068342 4.37796739 5.32312754 3.44812754 3.1875 1.3125 C-0.85872502 0.94269987 -0.85872502 0.94269987 -3.8125 3.3125 Z " fill="#E1534D" transform="translate(317.8125,248.6875)"/>
<path d="M0 0 C0.33 0.66 0.66 1.32 1 2 C1.66 2 2.32 2 3 2 C3.21857101 7.46427518 3.06127631 11.84680923 1 17 C0.62875 18.11375 0.2575 19.2275 -0.125 20.375 C-0.41375 21.24125 -0.7025 22.1075 -1 23 C-2.32 22.67 -3.64 22.34 -5 22 C-3.48632812 19.4609375 -3.48632812 19.4609375 -1.97265625 16.921875 C-0.00435169 13.03269491 0.11396571 9.57311924 0.0625 5.25 C0.04896484 3.77273437 0.04896484 3.77273437 0.03515625 2.265625 C0.02355469 1.51796875 0.01195312 0.7703125 0 0 Z " fill="#DD4F49" transform="translate(582,198)"/>
<path d="M0 0 C8.60308032 0.44953032 16.65932321 1.86101998 25 4 C25 4.66 25 5.32 25 6 C22.68682039 5.69257097 20.37446648 5.37892298 18.0625 5.0625 C16.77472656 4.88847656 15.48695313 4.71445313 14.16015625 4.53515625 C11 4 11 4 10 3 C8.31816052 2.76712992 6.6287584 2.58735834 4.9375 2.4375 C3.55884766 2.31181641 3.55884766 2.31181641 2.15234375 2.18359375 C1.08693359 2.09271484 1.08693359 2.09271484 0 2 C0 1.34 0 0.68 0 0 Z " fill="#DF554B" transform="translate(551,125)"/>
<path d="M0 0 C3.68349456 2.7152617 4.17434468 6.6540904 5.125 10.875 C5.29386719 11.58269531 5.46273438 12.29039063 5.63671875 13.01953125 C6.49895157 16.66535033 7.29305661 20.3210089 8 24 C5.02437908 20.57061871 3.68871798 16.8158867 2.3125 12.5625 C2.08755859 11.90701172 1.86261719 11.25152344 1.63085938 10.57617188 C0.43353356 6.94780155 -0.2725361 3.82287129 0 0 Z " fill="#DA574E" transform="translate(436,109)"/>
<path d="M0 0 C2.9667491 2.52433914 4.15962184 5.23895511 5.625 8.8125 C6.05039062 9.82957031 6.47578125 10.84664062 6.9140625 11.89453125 C7.9795871 14.94162499 8.57042203 17.80680373 9 21 C3.48896859 15.48896859 1.21766056 7.54949547 0 0 Z " fill="#E2514A" transform="translate(616,54)"/>
<path d="M0 0 C15.74487472 0.96355353 15.74487472 0.96355353 23 2 C23 2.66 23 3.32 23 4 C14.98298054 4.41467342 7.78069851 2.85939879 0 1 C0 0.67 0 0.34 0 0 Z " fill="#E2554E" transform="translate(497,170)"/>
<path d="M0 0 C5.47361889 0.5439085 9.58317001 2.55393801 14.375 5.0625 C15.11105469 5.43955078 15.84710937 5.81660156 16.60546875 6.20507812 C18.40739646 7.12944364 20.20423099 8.06372614 22 9 C20.109375 9.578125 20.109375 9.578125 18 10 C16.64377755 9.03126968 15.31558703 8.02323436 14 7 C9.46920373 5.00683855 4.70268781 3.52837354 0 2 C0 1.34 0 0.68 0 0 Z " fill="#DF544A" transform="translate(569,19)"/>
<path d="M0 0 C0.33 0 0.66 0 1 0 C1 4.62 1 9.24 1 14 C-5.93 14 -12.86 14 -20 14 C-20 13.67 -20 13.34 -20 13 C-18.71222656 12.93941406 -17.42445313 12.87882813 -16.09765625 12.81640625 C-14.41925841 12.73201753 -12.74087364 12.6473687 -11.0625 12.5625 C-9.78729492 12.50352539 -9.78729492 12.50352539 -8.48632812 12.44335938 C-7.67744141 12.40146484 -6.86855469 12.35957031 -6.03515625 12.31640625 C-5.2862915 12.27974854 -4.53742676 12.24309082 -3.76586914 12.20532227 C-1.97538674 12.18228937 -1.97538674 12.18228937 -1 11 C-0.76636119 9.15108054 -0.58696365 7.29511969 -0.4375 5.4375 C-0.35371094 4.42558594 -0.26992188 3.41367188 -0.18359375 2.37109375 C-0.09271484 1.19740234 -0.09271484 1.19740234 0 0 Z " fill="#F64439" transform="translate(348,199)"/>
<path d="M0 0 C3.96181397 0.64935809 7.373439 1.86580145 11.0625 3.4375 C12.08472656 3.86933594 13.10695313 4.30117187 14.16015625 4.74609375 C16.47937767 5.77012411 18.74741638 6.83859598 21 8 C19 9 19 9 15.41015625 7.890625 C13.95790156 7.35186385 12.5087807 6.8045984 11.0625 6.25 C10.33353516 5.98445312 9.60457031 5.71890625 8.85351562 5.4453125 C8.15033203 5.17976562 7.44714844 4.91421875 6.72265625 4.640625 C6.08078369 4.39860352 5.43891113 4.15658203 4.77758789 3.90722656 C2.77500282 2.88516831 1.50281671 1.65712249 0 0 Z " fill="#D9514B" transform="translate(474,161)"/>
<path d="M0 0 C0.99 1.32 1.98 2.64 3 4 C1.49760034 7.61941735 0.17854707 10.7321794 -2 14 C-2.66 14 -3.32 14 -4 14 C-3.67 12.35 -3.34 10.7 -3 9 C-2.34 9 -1.68 9 -1 9 C-0.67 6.03 -0.34 3.06 0 0 Z " fill="#EA4945" transform="translate(355,250)"/>
<path d="M0 0 C0.66 0 1.32 0 2 0 C1.53444296 6.40140935 -0.14711836 11.26769829 -3 17 C-4.07165134 13.79219034 -3.95821741 12.15091648 -2.625 9.0625 C-1.39164525 6.04951008 -0.50528293 3.23381078 0 0 Z " fill="#E4504A" transform="translate(637,222)"/>
<path d="M0 0 C1.65 0.33 3.3 0.66 5 1 C4.360625 1.185625 3.72125 1.37125 3.0625 1.5625 C0.57873787 2.94246056 0.57873787 2.94246056 0.25 6.625 C0.1675 7.73875 0.085 8.8525 0 10 C1.32 10.33 2.64 10.66 4 11 C1.13822943 12.43088528 -0.93375773 11.59991697 -4 11 C-3.34 10.67 -2.68 10.34 -2 10 C-2.185625 9.236875 -2.37125 8.47375 -2.5625 7.6875 C-3 5 -3 5 -2 2 C-1.34 2 -0.68 2 0 2 C0 1.34 0 0.68 0 0 Z " fill="#F94137" transform="translate(315,148)"/>
<path d="M0 0 C1.62392048 3.24784096 0.75660287 6.57226002 0 10 C-1.43424478 12.86848956 -2.74038198 14.74038198 -5 17 C-4.72740991 10.22613615 -3.80946641 5.65275661 0 0 Z " fill="#E64D45" transform="translate(444,55)"/>
<path d="M0 0 C4.59306496 1.4859916 7.43569245 3.85014682 11 7 C8 8 8 8 5 8 C4.67 6.68 4.34 5.36 4 4 C2.68 3.67 1.36 3.34 0 3 C0 2.01 0 1.02 0 0 Z " fill="#E05249" transform="translate(591,29)"/>
<path d="M0 0 C0 0.99 0 1.98 0 3 C-2.72842061 4.36421031 -4.60953318 3.87807211 -7.625 3.5625 C-8.62789063 3.46066406 -9.63078125 3.35882813 -10.6640625 3.25390625 C-11.43492187 3.17011719 -12.20578125 3.08632812 -13 3 C-13 2.34 -13 1.68 -13 1 C-6.565 0.505 -6.565 0.505 0 0 Z " fill="#E2564D" transform="translate(325,136)"/>
<path d="M0 0 C4.79016959 2.23462006 8.98745115 4.48901975 13 8 C7.64147506 7.60791281 3.85831875 5.6642613 0 2 C0 1.34 0 0.68 0 0 Z " fill="#DB574E" transform="translate(284,262)"/>
<path d="M0 0 C5.52628901 1.19194469 8.17819158 2.5991297 12 7 C11.67 7.66 11.34 8.32 11 9 C10.01 8.67 9.02 8.34 8 8 C7.67 7.01 7.34 6.02 7 5 C3.49705129 3.28432339 3.49705129 3.28432339 0 2 C0 1.34 0 0.68 0 0 Z " fill="#DD504C" transform="translate(311,60)"/>
<path d="M0 0 C0 0.66 0 1.32 0 2 C-9.41002278 5.44419134 -9.41002278 5.44419134 -14 5 C-11.96470413 2.96470413 -10.76582618 2.3615728 -8.125 1.375 C-7.10792969 0.98441406 -7.10792969 0.98441406 -6.0703125 0.5859375 C-4 0 -4 0 0 0 Z " fill="#E34F47" transform="translate(496,18)"/>
<path d="M0 0 C2.51239382 3.76859072 3.12663199 6.26239249 3.0625 10.6875 C3.05347656 11.49574219 3.04445313 12.30398437 3.03515625 13.13671875 C3.02355469 13.75160156 3.01195312 14.36648437 3 15 C-0.34944548 9.97583178 -0.09834146 5.90048743 0 0 Z " fill="#E3554E" transform="translate(428,214)"/>
<path d="M0 0 C2.97 0.495 2.97 0.495 6 1 C5.67 2.65 5.34 4.3 5 6 C3.35 6.33 1.7 6.66 0 7 C-0.93423645 3.98968256 -1.04449911 3.13349732 0 0 Z M1 1 C1.33 2.32 1.66 3.64 2 5 C2.99 4.67 3.98 4.34 5 4 C4.67 3.01 4.34 2.02 4 1 C3.01 1 2.02 1 1 1 Z " fill="#E3524C" transform="translate(315,151)"/>
<path d="M0 0 C6.15222436 0.43173504 9.81917949 1.65405342 15 5 C14.01 5.495 14.01 5.495 13 6 C12.01 5.34 11.02 4.68 10 4 C7.66607501 3.41037685 5.32909599 2.99168083 2.9609375 2.5625 C2.31382812 2.376875 1.66671875 2.19125 1 2 C0.67 1.34 0.34 0.68 0 0 Z " fill="#DE5652" transform="translate(336,122)"/>
<path d="M0 0 C2.475 0.495 2.475 0.495 5 1 C5 1.66 5 2.32 5 3 C5.66 3 6.32 3 7 3 C7 3.99 7 4.98 7 6 C4.69 5.34 2.38 4.68 0 4 C0 2.68 0 1.36 0 0 Z " fill="#F5463A" transform="translate(59,99)"/>
<path d="M0 0 C0.66 0.33 1.32 0.66 2 1 C0.02 4.63 -1.96 8.26 -4 12 C-5 8 -5 8 -4.00390625 5.859375 C-3.52824219 5.16328125 -3.05257812 4.4671875 -2.5625 3.75 C-2.08941406 3.04359375 -1.61632813 2.3371875 -1.12890625 1.609375 C-0.75636719 1.07828125 -0.38382813 0.5471875 0 0 Z " fill="#E14E4C" transform="translate(45,64)"/>
<path d="M0 0 C0.99 0.33 1.98 0.66 3 1 C-5.07744875 6.74031891 -5.07744875 6.74031891 -11 6 C-10.484375 5.7525 -9.96875 5.505 -9.4375 5.25 C-7.08937386 4.08590712 -7.08937386 4.08590712 -5.28125 2.94140625 C-3.56275368 1.88919134 -1.78244203 0.93983307 0 0 Z " fill="#DF564C" transform="translate(349,264)"/>
<path d="M0 0 C1.65 0 3.3 0 5 0 C4.02526874 1.66926454 3.04510211 3.33535642 2.0625 5 C1.24458984 6.3921875 1.24458984 6.3921875 0.41015625 7.8125 C-0.05519531 8.534375 -0.52054687 9.25625 -1 10 C-1.33 10 -1.66 10 -2 10 C-1.125 2.25 -1.125 2.25 0 0 Z " fill="#E24E47" transform="translate(497,73)"/>
<path d="M0 0 C3.39417765 3.12621626 5.6062718 5.56541027 7 10 C4.625 9.5 4.625 9.5 2 8 C0.91758097 5.33474712 0.50727893 2.8592085 0 0 Z " fill="#E25148" transform="translate(609,44)"/>
<path d="M0 0 C1.67542976 0.28604898 3.34385343 0.61781233 5 1 C-0.14285714 5.42857143 -0.14285714 5.42857143 -4 6 C-4 5.01 -4 4.02 -4 3 C-3.01 2.34 -2.02 1.68 -1 1 C-0.67 0.67 -0.34 0.34 0 0 Z " fill="#E34B45" transform="translate(601,268)"/>
<path d="M0 0 C1.46313772 0.76167457 2.92036661 1.53470707 4.375 2.3125 C5.18710937 2.74175781 5.99921875 3.17101562 6.8359375 3.61328125 C9 5 9 5 11 8 C9.35 7.67 7.7 7.34 6 7 C6 6.34 6 5.68 6 5 C5.195625 4.731875 4.39125 4.46375 3.5625 4.1875 C2.716875 3.795625 1.87125 3.40375 1 3 C0.67 2.01 0.34 1.02 0 0 Z " fill="#D7544F" transform="translate(603,140)"/>
<path d="M0 0 C0.474375 0.474375 0.94875 0.94875 1.4375 1.4375 C5.11644797 3.68076096 8.7621112 3.73739578 13 4 C13 4.33 13 4.66 13 5 C8.71 5 4.42 5 0 5 C-0.33 4.34 -0.66 3.68 -1 3 C-0.67 2.01 -0.34 1.02 0 0 Z " fill="#ED4C42" transform="translate(545,281)"/>
<path d="M0 0 C8.19256018 0.35010941 8.19256018 0.35010941 11.5625 3.0625 C12.036875 3.701875 12.51125 4.34125 13 5 C8.15340923 4.40895235 4.39251833 3.02055843 0 1 C0 0.67 0 0.34 0 0 Z " fill="#E0574C" transform="translate(476,276)"/>
<path d="M0 0 C1.485 0.99 1.485 0.99 3 2 C3.40843923 4.71203652 3.13336867 7.2437142 3 10 C2.01 10.495 2.01 10.495 1 11 C0.67 7.37 0.34 3.74 0 0 Z " fill="#DA5151" transform="translate(322,148)"/>
<path d="M0 0 C0 0.66 0 1.32 0 2 C-2.3125 4.1875 -2.3125 4.1875 -5 6 C-5.99 5.67 -6.98 5.34 -8 5 C-8 4.34 -8 3.68 -8 3 C-2.25 0 -2.25 0 0 0 Z " fill="#EC4E46" transform="translate(481,23)"/>
<path d="M0 0 C3.32812571 0.57381478 4.69842455 1.59380748 7 4 C7.66 4 8.32 4 9 4 C8.34 5.32 7.68 6.64 7 8 C5.83035398 6.8572081 4.66435444 5.71068285 3.5 4.5625 C2.8503125 3.92441406 2.200625 3.28632813 1.53125 2.62890625 C0 1 0 1 0 0 Z " fill="#DA5850" transform="translate(443,252)"/>
<path d="M0 0 C1.98 0.99 1.98 0.99 4 2 C4 4.31 4 6.62 4 9 C3.01 9.495 3.01 9.495 2 10 C1.855625 8.906875 1.71125 7.81375 1.5625 6.6875 C1.11711896 3.06877013 1.11711896 3.06877013 0 0 Z " fill="#EA5048" transform="translate(208,236)"/>
<path d="M0 0 C1.6415049 3.2830098 0.51888624 6.42545033 0 10 C-0.66 10 -1.32 10 -2 10 C-2.6875 7.25 -2.6875 7.25 -3 4 C-1.5625 1.625 -1.5625 1.625 0 0 Z " fill="#DE4E44" transform="translate(313,148)"/>
<path d="M0 0 C2.475 0.495 2.475 0.495 5 1 C5 1.66 5 2.32 5 3 C6.65 3.33 8.3 3.66 10 4 C9.67 4.66 9.34 5.32 9 6 C5.06326356 4.68775452 2.77280706 3.08089673 0 0 Z " fill="#DC594F" transform="translate(44,232)"/>
<path d="M0 0 C0.33 0.66 0.66 1.32 1 2 C-2.63 2.66 -6.26 3.32 -10 4 C-6.58908673 0.88145073 -4.68377325 -0.53528837 0 0 Z " fill="#DE4D44" transform="translate(522,63)"/>
<path d="M0 0 C0.66 0 1.32 0 2 0 C2.33 0.66 2.66 1.32 3 2 C3.33 1.34 3.66 0.68 4 0 C4.66 0 5.32 0 6 0 C5.6875 1.875 5.6875 1.875 5 4 C4.01 4.66 3.02 5.32 2 6 C1.34 4.02 0.68 2.04 0 0 Z " fill="#D64E40" transform="translate(69,98)"/>
<path d="M0 0 C0.33 0.99 0.66 1.98 1 3 C-0.98 4.32 -2.96 5.64 -5 7 C-5.66 6.67 -6.32 6.34 -7 6 C-4.69 4.02 -2.38 2.04 0 0 Z " fill="#D85046" transform="translate(464,32)"/>
<path d="M0 0 C3.73487777 0.4979837 5.81237635 0.87491756 9 3 C9 3.66 9 4.32 9 5 C5.22454612 3.90931332 2.52956528 3.0916909 0 0 Z " fill="#D45552" transform="translate(465,156)"/>
<path d="M0 0 C0.66 0.33 1.32 0.66 2 1 C-0.31 3.64 -2.62 6.28 -5 9 C-5 4.61031544 -2.87194899 3.23094261 0 0 Z " fill="#D44C4C" transform="translate(287,126)"/>
<path d="M0 0 C0.99 0.33 1.98 0.66 3 1 C3 2.32 3 3.64 3 5 C2.34 5 1.68 5 1 5 C0.67 5.99 0.34 6.98 0 8 C-1.09658936 4.71023192 -0.79953138 3.28696233 0 0 Z " fill="#F74535" transform="translate(72,93)"/>
<path d="M0 0 C0.33 0.66 0.66 1.32 1 2 C-1 4 -1 4 -4.625 4.125 C-5.73875 4.08375 -6.8525 4.0425 -8 4 C-8 3.34 -8 2.68 -8 2 C-5.36 1.34 -2.72 0.68 0 0 Z " fill="#F64336" transform="translate(70,86)"/>
<path d="M0 0 C-4.95 2.475 -4.95 2.475 -10 5 C-10 4.34 -10 3.68 -10 3 C-9.34 3 -8.68 3 -8 3 C-7.67 2.01 -7.34 1.02 -7 0 C-4 -1 -4 -1 0 0 Z " fill="#DE514D" transform="translate(512,68)"/>
<path d="M0 0 C3.36720387 1.39332574 4.9859524 2.9789286 7 6 C4.0625 5.25 4.0625 5.25 1 4 C0.125 1.875 0.125 1.875 0 0 Z " fill="#E34947" transform="translate(498,111)"/>
</svg>
